<svg rpl="" fill="currentColor" height="12" icon-name="gold-outline" viewBox="0 0 20 20" width="12" xmlns="http://www.w3.org/2000/svg">
    <path d="M9.95 1.92c.85 0 1.67.27 2.35.77l4.35 3.16a4 4 0 0 1 1.46 4.48l-1.66 5.11a3.986 3.986 0 0 1-3.81 2.76H7.27c-1.74 0-3.27-1.11-3.81-2.76L1.8 10.33a3.99 3.99 0 0 1 1.46-4.48L7.6 2.69c.69-.5 1.5-.77 2.35-.77Zm0-1.3c-1.1 0-2.18.34-3.12 1.01L2.48 4.79a5.332 5.332 0 0 0-1.93 5.93l1.66 5.11a5.308 5.308 0 0 0 5.04 3.67h5.37c2.3 0 4.33-1.48 5.04-3.67l1.66-5.11c.71-2.18-.07-4.58-1.93-5.92l-4.34-3.16A5.326 5.326 0 0 0 9.93.63l.02-.01Z"></path><path d="M9.95 5.77c.08 0 .19.03.26.14l1.08 1.85.29.5.56.12 2.1.46c.14.03.2.12.23.2.02.07.03.19-.06.29l-1.82 2.01.06.57.22 2.13s.01.13-.07.23c-.06.06-.14.1-.23.1-.04 0-.08 0-.12-.03l-1.97-.87-.53-.23-.53.23-1.97.87s-.08.03-.12.03c-.08 0-.17-.04-.23-.1-.08-.09-.07-.2-.07-.23l.22-2.13.06-.57-1.82-2.01a.302.302 0 0 1-.06-.29.27.27 0 0 1 .23-.2l2.1-.46.56-.12.29-.5 1.08-1.85a.29.29 0 0 1 .26-.14Zm0-1.3c-.54 0-1.08.27-1.38.8L7.49 7.12l-2.1.46c-1.2.26-1.67 1.71-.85 2.63l1.44 1.59-.22 2.13c-.1.98.68 1.76 1.58 1.76.22 0 .43-.04.65-.13l1.97-.87 1.97.87c.22.09.43.13.65.13.9 0 1.69-.78 1.58-1.76l-.22-2.13 1.44-1.59c.82-.91.34-2.37-.85-2.63l-2.1-.46-1.08-1.85c-.31-.53-.84-.8-1.38-.8h-.04.02Z"></path>
</svg>