<?xml version="1.0" encoding="UTF-8"?>
<svg xmlns="http://www.w3.org/2000/svg" xmlns:xlink="http://www.w3.org/1999/xlink" width="16px" height="16px" viewBox="0 0 16 16" version="1.1">
<g id="surface1">
<path style=" stroke:none;fill-rule:nonzero;fill:rgb(100%,75.686276%,2.352941%);fill-opacity:1;" d="M 8.261719 0.0390625 C 8.417969 0.144531 8.492188 0.289062 8.574219 0.460938 C 8.585938 0.480469 8.597656 0.5 8.605469 0.523438 C 8.636719 0.585938 8.667969 0.652344 8.699219 0.722656 C 8.726562 0.769531 8.746094 0.816406 8.769531 0.863281 C 8.921875 1.179688 9.070312 1.496094 9.21875 1.820312 C 9.355469 2.117188 9.5 2.417969 9.640625 2.71875 C 9.820312 3.09375 9.996094 3.472656 10.167969 3.851562 C 10.25 4.023438 10.332031 4.195312 10.414062 4.367188 C 10.429688 4.398438 10.445312 4.433594 10.460938 4.46875 C 10.492188 4.53125 10.523438 4.59375 10.554688 4.65625 C 10.574219 4.695312 10.574219 4.695312 10.597656 4.742188 C 10.613281 4.773438 10.613281 4.773438 10.632812 4.8125 C 10.65625 4.875 10.65625 4.875 10.65625 4.96875 C 10.695312 4.972656 10.695312 4.972656 10.726562 4.972656 C 10.992188 4.992188 11.257812 5.023438 11.519531 5.066406 C 11.5625 5.070312 11.605469 5.078125 11.648438 5.085938 C 11.769531 5.101562 11.886719 5.121094 12.003906 5.136719 C 12.101562 5.152344 12.203125 5.167969 12.300781 5.183594 C 12.535156 5.21875 12.769531 5.257812 13.003906 5.289062 C 13.242188 5.328125 13.480469 5.367188 13.722656 5.398438 C 13.929688 5.429688 14.136719 5.460938 14.34375 5.492188 C 14.46875 5.511719 14.589844 5.53125 14.714844 5.550781 C 14.832031 5.570312 14.945312 5.585938 15.0625 5.601562 C 15.125 5.613281 15.1875 5.621094 15.25 5.632812 C 15.761719 5.710938 15.761719 5.710938 15.902344 5.878906 C 15.992188 6 16.007812 6.0625 16.007812 6.210938 C 16.007812 6.242188 16.011719 6.273438 16.011719 6.308594 C 15.976562 6.554688 15.753906 6.722656 15.585938 6.886719 C 15.53125 6.9375 15.480469 6.988281 15.429688 7.039062 C 15.40625 7.0625 15.382812 7.085938 15.359375 7.105469 C 15.296875 7.171875 15.238281 7.238281 15.179688 7.304688 C 15.066406 7.4375 14.945312 7.558594 14.820312 7.679688 C 14.789062 7.710938 14.789062 7.710938 14.757812 7.742188 C 14.664062 7.835938 14.570312 7.929688 14.476562 8.023438 C 14.40625 8.089844 14.339844 8.160156 14.273438 8.226562 C 14.25 8.246094 14.226562 8.269531 14.207031 8.289062 C 14.109375 8.386719 14.011719 8.488281 13.921875 8.59375 C 13.8125 8.722656 13.695312 8.839844 13.570312 8.960938 C 13.539062 8.992188 13.539062 8.992188 13.507812 9.023438 C 13.414062 9.117188 13.320312 9.210938 13.226562 9.304688 C 13.15625 9.371094 13.089844 9.441406 13.023438 9.507812 C 13 9.527344 12.976562 9.550781 12.957031 9.570312 C 12.835938 9.691406 12.726562 9.8125 12.617188 9.945312 C 12.5625 10 12.5625 10 12.5 10.050781 C 12.433594 10.101562 12.390625 10.148438 12.34375 10.21875 C 12.335938 10.296875 12.335938 10.296875 12.351562 10.382812 C 12.351562 10.414062 12.355469 10.449219 12.359375 10.484375 C 12.386719 10.679688 12.417969 10.875 12.449219 11.070312 C 12.460938 11.117188 12.464844 11.164062 12.472656 11.210938 C 12.492188 11.3125 12.507812 11.414062 12.523438 11.511719 C 12.550781 11.671875 12.574219 11.828125 12.601562 11.988281 C 12.664062 12.382812 12.730469 12.773438 12.796875 13.164062 C 12.847656 13.472656 12.898438 13.777344 12.945312 14.085938 C 12.972656 14.242188 13 14.398438 13.023438 14.554688 C 13.039062 14.652344 13.054688 14.75 13.074219 14.847656 C 13.082031 14.894531 13.085938 14.9375 13.097656 14.984375 C 13.105469 15.046875 13.117188 15.105469 13.128906 15.167969 C 13.132812 15.203125 13.136719 15.238281 13.144531 15.273438 C 13.171875 15.5 13.160156 15.65625 13.03125 15.84375 C 12.898438 15.972656 12.773438 16.019531 12.589844 16.015625 C 12.378906 15.976562 12.1875 15.851562 12 15.75 C 11.96875 15.734375 11.941406 15.714844 11.910156 15.699219 C 11.714844 15.59375 11.523438 15.484375 11.328125 15.375 C 11.121094 15.261719 10.914062 15.148438 10.707031 15.035156 C 10.667969 15.011719 10.632812 14.992188 10.59375 14.972656 C 10.476562 14.90625 10.367188 14.84375 10.25 14.78125 C 9.816406 14.539062 9.382812 14.304688 8.945312 14.0625 C 8.894531 14.03125 8.839844 14.003906 8.789062 13.972656 C 8.640625 13.894531 8.496094 13.8125 8.355469 13.726562 C 8.324219 13.710938 8.324219 13.710938 8.292969 13.691406 C 8.242188 13.660156 8.195312 13.628906 8.144531 13.597656 C 8.042969 13.554688 8.007812 13.566406 7.90625 13.59375 C 7.84375 13.621094 7.785156 13.652344 7.726562 13.683594 C 7.691406 13.703125 7.652344 13.722656 7.617188 13.742188 C 7.582031 13.761719 7.539062 13.785156 7.503906 13.804688 C 7.464844 13.824219 7.425781 13.847656 7.382812 13.867188 C 7.113281 14.015625 6.84375 14.164062 6.574219 14.320312 C 6.367188 14.441406 6.152344 14.554688 5.9375 14.671875 C 5.691406 14.804688 5.445312 14.941406 5.203125 15.078125 C 4.925781 15.238281 4.644531 15.390625 4.359375 15.542969 C 4.152344 15.65625 3.945312 15.769531 3.742188 15.886719 C 3.5625 15.988281 3.421875 16.023438 3.21875 16 C 3.054688 15.945312 2.960938 15.839844 2.875 15.6875 C 2.777344 15.394531 2.898438 15.003906 2.949219 14.707031 C 2.960938 14.660156 2.964844 14.613281 2.972656 14.566406 C 2.992188 14.464844 3.007812 14.367188 3.023438 14.265625 C 3.050781 14.105469 3.074219 13.945312 3.101562 13.789062 C 3.152344 13.484375 3.203125 13.175781 3.253906 12.867188 C 3.320312 12.476562 3.382812 12.085938 3.445312 11.695312 C 3.472656 11.539062 3.5 11.378906 3.523438 11.222656 C 3.539062 11.125 3.554688 11.023438 3.574219 10.929688 C 3.582031 10.882812 3.585938 10.835938 3.597656 10.792969 C 3.605469 10.730469 3.617188 10.667969 3.628906 10.605469 C 3.632812 10.554688 3.632812 10.554688 3.644531 10.503906 C 3.65625 10.40625 3.664062 10.316406 3.65625 10.21875 C 3.601562 10.148438 3.546875 10.09375 3.480469 10.035156 C 3.449219 10.007812 3.414062 9.976562 3.382812 9.945312 C 3.359375 9.921875 3.359375 9.921875 3.335938 9.898438 C 3.28125 9.84375 3.230469 9.789062 3.179688 9.726562 C 3.066406 9.597656 2.945312 9.476562 2.820312 9.351562 C 2.800781 9.332031 2.777344 9.308594 2.757812 9.289062 C 2.6875 9.214844 2.617188 9.148438 2.546875 9.078125 C 2.453125 8.988281 2.363281 8.894531 2.273438 8.804688 C 2.25 8.785156 2.226562 8.761719 2.207031 8.742188 C 2.085938 8.625 1.976562 8.5 1.867188 8.375 C 1.773438 8.269531 1.675781 8.171875 1.570312 8.070312 C 1.550781 8.050781 1.527344 8.027344 1.507812 8.007812 C 1.4375 7.933594 1.367188 7.867188 1.296875 7.796875 C 1.203125 7.707031 1.113281 7.613281 1.023438 7.523438 C 1 7.503906 0.976562 7.480469 0.957031 7.460938 C 0.835938 7.339844 0.722656 7.214844 0.609375 7.085938 C 0.554688 7.023438 0.496094 6.960938 0.433594 6.902344 C 0.402344 6.867188 0.402344 6.867188 0.367188 6.835938 C 0.324219 6.792969 0.277344 6.75 0.234375 6.707031 C 0.210938 6.6875 0.195312 6.664062 0.167969 6.644531 C 0.148438 6.625 0.132812 6.605469 0.113281 6.585938 C -0.015625 6.445312 -0.0117188 6.308594 -0.0078125 6.121094 C 0.0078125 5.960938 0.078125 5.882812 0.195312 5.78125 C 0.359375 5.675781 0.5625 5.667969 0.75 5.640625 C 0.792969 5.632812 0.835938 5.628906 0.882812 5.621094 C 0.96875 5.609375 1.058594 5.59375 1.148438 5.582031 C 1.308594 5.558594 1.46875 5.535156 1.632812 5.507812 C 1.824219 5.476562 2.023438 5.445312 2.214844 5.417969 C 2.257812 5.410156 2.300781 5.402344 2.34375 5.398438 C 2.539062 5.367188 2.738281 5.335938 2.933594 5.304688 C 3.160156 5.273438 3.382812 5.238281 3.605469 5.203125 C 3.785156 5.175781 3.960938 5.148438 4.132812 5.121094 C 4.242188 5.105469 4.34375 5.089844 4.445312 5.074219 C 4.5625 5.054688 4.679688 5.039062 4.792969 5.023438 C 4.828125 5.015625 4.863281 5.007812 4.898438 5.007812 C 5.046875 4.980469 5.191406 4.960938 5.34375 4.96875 C 5.351562 4.949219 5.351562 4.933594 5.359375 4.914062 C 5.414062 4.746094 5.480469 4.585938 5.558594 4.425781 C 5.570312 4.398438 5.582031 4.375 5.59375 4.351562 C 5.617188 4.296875 5.644531 4.242188 5.667969 4.195312 C 5.710938 4.109375 5.75 4.027344 5.789062 3.945312 C 5.832031 3.859375 5.871094 3.773438 5.914062 3.6875 C 6.039062 3.417969 6.164062 3.148438 6.292969 2.882812 C 6.304688 2.863281 6.3125 2.839844 6.324219 2.816406 C 6.460938 2.523438 6.597656 2.234375 6.730469 1.941406 C 6.800781 1.792969 6.867188 1.648438 6.9375 1.5 C 6.953125 1.464844 6.953125 1.464844 6.96875 1.429688 C 7.039062 1.277344 7.113281 1.125 7.183594 0.976562 C 7.207031 0.925781 7.230469 0.875 7.253906 0.824219 C 7.578125 0.128906 7.578125 0.128906 7.75 0.03125 C 7.917969 -0.0234375 8.09375 -0.0234375 8.261719 0.0390625 Z M 8.261719 0.0390625 "/>
</g>
</svg>
