<?xml version="1.0" encoding="UTF-8"?>
<svg version="1.1" xmlns="http://www.w3.org/2000/svg" width="512" height="512">
<path d="M0 0 C0.86496094 0.72316406 1.72992188 1.44632813 2.62109375 2.19140625 C7.54821794 6.43720804 11.86717989 10.98489245 16 16 C16.62519531 16.73734375 17.25039063 17.4746875 17.89453125 18.234375 C44.32045197 50.13311954 56.10685532 90.96530501 52.3125 132.0625 C49.60375708 157.60574052 40.36614722 182.6468557 25.56640625 203.64453125 C23.85723992 205.991599 23.85723992 205.991599 23 209 C24.42711228 211.71611692 25.91299657 214.23490782 27.5625 216.8125 C28.05121582 217.59423584 28.53993164 218.37597168 29.04345703 219.18139648 C30.68314497 221.79572232 32.33950064 224.39884666 34 227 C34.90032959 228.41249023 34.90032959 228.41249023 35.81884766 229.85351562 C36.73802979 231.29500977 36.73802979 231.29500977 37.67578125 232.765625 C38.2905835 233.73008545 38.90538574 234.6945459 39.53881836 235.68823242 C40.73498947 237.56065929 41.93484275 239.43074055 43.13891602 241.2980957 C52.9739105 256.61725629 52.9739105 256.61725629 53.0625 261.3125 C51.74305019 264.64993187 51.06564364 266.0559333 48 268 C40.0666778 269.16200305 32.20460083 266.9727354 24.53276825 265.16093063 C22.31479829 264.63792617 20.09387564 264.12971886 17.87164307 263.62515259 C11.56174628 262.18959825 5.25825735 260.72673126 -1.04394531 259.2578125 C-4.91689812 258.35615614 -8.79315986 257.47006636 -12.6717453 256.59297562 C-14.14191431 256.25702603 -15.61069364 255.91493134 -17.07794952 255.56647873 C-19.12738557 255.07978655 -21.18045005 254.61288586 -23.23535156 254.14990234 C-24.39987854 253.87898773 -25.56440552 253.60807312 -26.76422119 253.32894897 C-32.58510672 252.73719829 -37.4217504 255.57765219 -42.6875 257.8125 C-48.54428599 260.2092975 -54.44848434 262.12095904 -60.5625 263.75 C-61.29235107 263.94827393 -62.02220215 264.14654785 -62.77416992 264.35083008 C-74.79521846 267.42947155 -86.81114216 268.36368363 -99.1875 268.3125 C-99.857883 268.31167419 -100.52826599 268.31084839 -101.21896362 268.30999756 C-114.42593577 268.2727191 -127.47158309 267.4953758 -140 263 C-139.94199219 263.79277344 -139.88398438 264.58554687 -139.82421875 265.40234375 C-138.4852462 300.02434818 -154.3726695 335.97081871 -177.5 361.25 C-179.31765675 363.18246611 -181.1574976 365.0909332 -183 367 C-183.78890625 367.85207031 -184.5778125 368.70414062 -185.390625 369.58203125 C-211.7459825 397.29006438 -250.94058737 411.95554407 -288.69921875 412.99609375 C-310.01317376 413.21500459 -338.32800494 410.69578936 -356.5065918 398.28930664 C-361.75411583 396.35261125 -365.9009883 397.70662178 -371.2421875 398.94140625 C-372.88790237 399.29653038 -372.88790237 399.29653038 -374.56686401 399.65882874 C-378.04994263 400.41697133 -381.52510067 401.20527709 -385 402 C-387.20467677 402.49626801 -389.40942804 402.99220518 -391.61425781 403.48779297 C-399.24181749 405.21301155 -406.86963954 406.93847725 -414.48291016 408.72583008 C-417.73786062 409.48772291 -420.9970968 410.22807518 -424.2578125 410.96484375 C-425.72651291 411.31771706 -425.72651291 411.31771706 -427.22488403 411.67771912 C-432.85162401 412.92710982 -436.66199599 413.37602509 -442 411 C-444.06450594 407.90324109 -444.58355351 406.05793578 -444.47753906 402.36425781 C-443.45016823 397.27782678 -440.20925379 393.13053242 -437.375 388.875 C-436.70726562 387.83762695 -436.03953125 386.80025391 -435.3515625 385.73144531 C-433.25253596 382.47538958 -431.12979246 379.23600141 -429 376 C-426.95611077 372.88998166 -424.91552009 369.77820988 -422.88916016 366.65673828 C-421.64887955 364.74839234 -420.39628828 362.84797996 -419.13037109 360.95654297 C-418.57172363 360.09947754 -418.01307617 359.24241211 -417.4375 358.359375 C-416.69306641 357.23740723 -416.69306641 357.23740723 -415.93359375 356.09277344 C-414.82191603 354.0679226 -414.82191603 354.0679226 -415.20874023 351.96069336 C-416.04355437 349.89207492 -417.01010226 348.14207382 -418.22265625 346.26953125 C-418.67487549 345.55812988 -419.12709473 344.84672852 -419.59301758 344.11376953 C-420.07794678 343.35435059 -420.56287598 342.59493164 -421.0625 341.8125 C-428.36999868 330.05164184 -434.23832231 318.25873268 -438.3125 305 C-438.54300049 304.25443848 -438.77350098 303.50887695 -439.01098633 302.74072266 C-443.03422507 288.80196602 -444.58878812 274.9525602 -444.5 260.5 C-444.49823761 259.72407501 -444.49647522 258.94815002 -444.49465942 258.14871216 C-444.29254955 217.92781926 -428.80240586 181.80682804 -401 153 C-400.21109375 152.14792969 -399.4221875 151.29585937 -398.609375 150.41796875 C-376.37963462 127.04729799 -342.06891383 110.85619413 -310 108 C-309.26410645 107.93441895 -308.52821289 107.86883789 -307.77001953 107.80126953 C-289.28268522 106.26709671 -271.00484985 107.39125004 -253 112 C-252.93530518 111.34741211 -252.87061035 110.69482422 -252.80395508 110.02246094 C-248.85912794 71.35299659 -237.04790158 38.57726597 -210 10 C-209.12988281 9.05382812 -208.25976562 8.10765625 -207.36328125 7.1328125 C-199.48733773 -1.24008348 -190.62088298 -7.7544626 -181 -14 C-180.40993164 -14.38671875 -179.81986328 -14.7734375 -179.21191406 -15.171875 C-124.07837723 -50.70452221 -48.85271875 -41.22895134 0 0 Z M-200.40234375 24.39453125 C-223.54906841 48.92436424 -236.82114352 84.33311581 -236 118 C-234.52853516 118.70962891 -234.52853516 118.70962891 -233.02734375 119.43359375 C-192.94170763 138.97033065 -163.09097127 168.41765868 -148 211 C-144.89678461 220.6647877 -142.63949758 230.4478009 -141.45703125 240.53125 C-141.12272556 243.24271399 -141.12272556 243.24271399 -139 246 C-137.2056831 246.75881275 -137.2056831 246.75881275 -135.11328125 247.1328125 C-134.33919922 247.29910156 -133.56511719 247.46539062 -132.76757812 247.63671875 C-131.95740234 247.79785156 -131.14722656 247.95898438 -130.3125 248.125 C-129.52166016 248.29386719 -128.73082031 248.46273438 -127.91601562 248.63671875 C-108.72425628 252.66207538 -88.10310171 252.61699581 -69 248 C-68.2869873 247.82839355 -67.57397461 247.65678711 -66.83935547 247.47998047 C-57.50363493 245.14761358 -49.13281048 241.91766718 -40.66015625 237.35546875 C-32.23618477 234.23581229 -23.65037969 236.43310659 -15.15625 238.40625 C-14.06534058 238.65040649 -12.97443115 238.89456299 -11.85046387 239.14611816 C-8.39797121 239.92077855 -4.9489729 240.70983134 -1.5 241.5 C1.97815155 242.28717073 5.45695325 243.07137662 8.93615723 243.85388184 C11.09373799 244.34018197 13.25058518 244.82975044 15.40661621 245.32287598 C16.37522583 245.54310425 17.34383545 245.76333252 18.34179688 245.99023438 C19.62225891 246.2833551 19.62225891 246.2833551 20.92858887 246.58239746 C22.97457797 247.06587559 22.97457797 247.06587559 25 247 C23.65585778 243.36020757 22.01797826 240.23944724 19.91796875 236.98046875 C19.31533203 236.04009766 18.71269531 235.09972656 18.09179688 234.13085938 C17.46337891 233.15955078 16.83496094 232.18824219 16.1875 231.1875 C14.95155804 229.26449313 13.71587655 227.34131883 12.48046875 225.41796875 C11.88935303 224.49846436 11.2982373 223.57895996 10.68920898 222.6315918 C7.59195433 217.80642806 7.59195433 217.80642806 6.109375 215.46875 C5.72104492 214.85837891 5.33271484 214.24800781 4.93261719 213.61914062 C3.64206599 211.37858157 3.06994462 209.58795106 3 207 C4.4105168 202.36893907 7.19466287 198.9477855 10.125 195.1875 C15.45485211 188.1326662 19.52334643 180.84524015 23.17724609 172.80908203 C23.90642063 171.20576354 24.66406878 169.61546208 25.42578125 168.02734375 C37.45901083 141.53933683 38.92686728 107.84499395 31 80 C30.81808105 79.33307129 30.63616211 78.66614258 30.44873047 77.97900391 C25.27995704 59.44255373 15.36675608 42.61736648 3 28 C2.32324219 27.18789062 1.64648438 26.37578125 0.94921875 25.5390625 C-22.24374821 -1.34273102 -56.3989195 -17.04346496 -91.5625 -19.73071289 C-133.7252871 -22.16413156 -170.86971725 -5.04205419 -200.40234375 24.39453125 Z M-380 157 C-380.80824219 157.67417969 -381.61648438 158.34835938 -382.44921875 159.04296875 C-401.96279583 175.86079264 -416.23441528 199.19685107 -423 224 C-423.19609863 224.68884277 -423.39219727 225.37768555 -423.59423828 226.08740234 C-429.63770041 248.09192962 -429.43417732 274.11694181 -423 296 C-422.78569336 296.7317041 -422.57138672 297.4634082 -422.35058594 298.21728516 C-417.42251931 314.43973448 -409.78549117 332.062665 -397.734375 344.30078125 C-395.62682585 347.58077328 -395.26845747 349.6389541 -395.45263672 353.49316406 C-396.56531037 358.58903071 -399.64478676 362.63589079 -402.5625 366.875 C-403.17158203 367.79152344 -403.78066406 368.70804688 -404.40820312 369.65234375 C-405.63597427 371.499847 -406.86984776 373.34330977 -408.10986328 375.18261719 C-410.08685323 378.1294609 -412.03709298 381.09101715 -413.96484375 384.0703125 C-414.83870728 385.41633545 -414.83870728 385.41633545 -415.73022461 386.78955078 C-417.16603587 388.86417192 -417.16603587 388.86417192 -417 391 C-414.33237188 390.48378831 -411.66585767 389.96274622 -409 389.4375 C-408.13656982 389.26766602 -407.27313965 389.09783203 -406.38354492 388.92285156 C-400.52449043 387.75255138 -394.69036642 386.4941873 -388.86328125 385.17578125 C-387.43815988 384.85551081 -386.01302963 384.53527988 -384.58789062 384.21508789 C-382.46285325 383.73724469 -380.33885269 383.25611035 -378.21704102 382.76412964 C-358.42037289 378.17501407 -358.42037289 378.17501407 -348.6875 383.125 C-335.98449768 389.11036301 -322.0053087 393.5649554 -308 395 C-306.76894531 395.13277344 -305.53789062 395.26554687 -304.26953125 395.40234375 C-269.85825785 398.54906077 -235.93549029 388.19716574 -208.75 367.0625 C-207.15407 365.72320196 -205.57124408 364.36817538 -204 363 C-203.04738281 362.19175781 -202.09476563 361.38351562 -201.11328125 360.55078125 C-181.81542202 343.81747323 -167.78123613 320.53967119 -161 296 C-160.80245117 295.30825684 -160.60490234 294.61651367 -160.40136719 293.90380859 C-154.32493271 271.77106729 -154.72954029 246.02647103 -161 224 C-161.18191895 223.33307129 -161.36383789 222.66614258 -161.55126953 221.97900391 C-166.72004296 203.44255373 -176.63324392 186.61736648 -189 172 C-189.67675781 171.18789062 -190.35351562 170.37578125 -191.05078125 169.5390625 C-214.03704096 142.89685289 -247.57617653 127.51574294 -282.33569336 124.26904297 C-318.13194329 121.74063551 -352.87225573 133.83119685 -380 157 Z " fill="#000000" transform="translate(452,68)"/>
<path d="M0 0 C1.15435547 -0.02900391 2.30871094 -0.05800781 3.49804688 -0.08789062 C5.16383789 -0.10045898 5.16383789 -0.10045898 6.86328125 -0.11328125 C8.39335815 -0.13515503 8.39335815 -0.13515503 9.9543457 -0.1574707 C13.57529617 0.46515812 14.40590434 1.43072503 16.6875 4.3125 C17.85407647 7.17201563 18.5922189 10.11278113 19.34472656 13.10424805 C19.57939636 13.99080078 19.81406616 14.87735352 20.05584717 15.79077148 C20.82644884 18.7153123 21.57737578 21.64452476 22.328125 24.57421875 C22.85932707 26.60665402 23.39171236 28.63878037 23.92523193 30.67060852 C25.32498513 36.01493776 26.70793266 41.36348048 28.08764648 46.7130127 C29.49826782 52.16888755 30.92595157 57.62029254 32.3515625 63.07226562 C34.42524895 71.01568491 36.49450456 78.96023182 38.54785156 86.90893555 C38.76598511 87.7499733 38.98411865 88.59101105 39.2088623 89.45753479 C40.6875 95.19604281 40.6875 95.19604281 40.6875 96.3125 C34.7475 96.3125 28.8075 96.3125 22.6875 96.3125 C21.72229747 93.04355934 20.7652463 89.77257275 19.8125 86.5 C19.54308594 85.59056641 19.27367187 84.68113281 18.99609375 83.74414062 C18.73183594 82.83212891 18.46757812 81.92011719 18.1953125 80.98046875 C17.95441895 80.15828857 17.71352539 79.3361084 17.46533203 78.48901367 C16.32003123 73.81182951 15.54889915 69.05019534 14.6875 64.3125 C5.4475 64.6425 -3.7925 64.9725 -13.3125 65.3125 C-15.9525 75.5425 -18.5925 85.7725 -21.3125 96.3125 C-27.2525 96.3125 -33.1925 96.3125 -39.3125 96.3125 C-37.70711778 86.40756322 -35.20292707 76.8190534 -32.62890625 67.1328125 C-32.1679786 65.38935182 -31.70720141 63.64585135 -31.24656677 61.90231323 C-30.28546391 58.2690325 -29.32093977 54.63668032 -28.35424805 51.00488281 C-27.11760153 46.35683636 -25.89212017 41.70592535 -24.66944981 37.05418587 C-23.7234189 33.46165638 -22.77026274 29.87104607 -21.81507683 26.28094101 C-21.3600829 24.56643255 -20.90758692 22.85125911 -20.45767403 21.13541031 C-19.82889362 18.74073508 -19.19024088 16.34890302 -18.54907227 13.95751953 C-18.27541588 12.90234383 -18.27541588 12.90234383 -17.99623108 11.82585144 C-14.77693488 -0.03760491 -11.30327562 0.09372534 0 0 Z M-1.3125 16.3125 C-3.9525 26.8725 -6.5925 37.4325 -9.3125 48.3125 C-3.0425 48.3125 3.2275 48.3125 9.6875 48.3125 C8.05438434 37.37062507 4.82175161 26.8990761 1.6875 16.3125 C0.6975 16.3125 -0.2925 16.3125 -1.3125 16.3125 Z " fill="#000000" transform="translate(123.3125,279.6875)"/>
<path d="M0 0 C18.81 0 37.62 0 57 0 C57 5.28 57 10.56 57 16 C50.4 16 43.8 16 37 16 C37 37.12 37 58.24 37 80 C43.6 80 50.2 80 57 80 C57 85.28 57 90.56 57 96 C38.19 96 19.38 96 0 96 C0 90.72 0 85.44 0 80 C6.6 80 13.2 80 20 80 C20 58.88 20 37.76 20 16 C13.4 16 6.8 16 0 16 C0 10.72 0 5.44 0 0 Z " fill="#000000" transform="translate(179,280)"/>
<path d="M0 0 C42.24 0 84.48 0 128 0 C128 5.28 128 10.56 128 16 C85.76 16 43.52 16 0 16 C0 10.72 0 5.44 0 0 Z " fill="#000000" transform="translate(288,176)"/>
<path d="M0 0 C42.24 0 84.48 0 128 0 C128 5.28 128 10.56 128 16 C85.76 16 43.52 16 0 16 C0 10.72 0 5.44 0 0 Z " fill="#000000" transform="translate(288,128)"/>
<path d="M0 0 C31.68 0 63.36 0 96 0 C96 5.28 96 10.56 96 16 C64.32 16 32.64 16 0 16 C0 10.72 0 5.44 0 0 Z " fill="#000000" transform="translate(320,224)"/>
</svg>
