<svg fill="currentColor" width="16" height="16" viewBox="0 0 20 20" xmlns="http://www.w3.org/2000/svg">
  <path d="M15.7 1H9.3A3.3 3.3 0 006 4.3V6H4.3A3.3 3.3 0 001 9.3v6.4A3.3 3.3 0 004.3 19h6.4a3.3 3.3 0 003.3-3.3V14h1.7a3.3 3.3 0 003.3-3.3V4.3A3.3 3.3 0 0015.7 1zm-3.5 14.7a1.5 1.5 0 01-1.5 1.5H4.3a1.5 1.5 0 01-1.5-1.5V9.3a1.5 1.5 0 011.5-1.5H6v2.9A3.3 3.3 0 009.3 14h2.9v1.7zm5-5a1.5 1.5 0 01-1.5 1.5H9.3a1.5 1.5 0 01-1.5-1.5V4.3a1.5 1.5 0 011.5-1.5h6.4a1.5 1.5 0 011.5 1.5v6.4z"></path>
</svg>
