<svg fill="currentColor" width="16" height="16" viewBox="0 0 20 20" xmlns="http://www.w3.org/2000/svg">
  <path d="M15.7 18H4.3A3.305 3.305 0 011 14.699V8.374c0-.885.405-1.699 1.111-2.234l6.162-4.566a2.883 2.883 0 013.453 0l6.058 4.491A2.8 2.8 0 0119 8.375V14.7c0 1.82-1.48 3.3-3.3 3.3zM10 2.803c-.229 0-.459.072-.654.217L3.19 7.582a.991.991 0 00-.39.793V14.7c0 .827.672 1.5 1.499 1.5h11.4c.827 0 1.499-.673 1.499-1.5V8.375c0-.333-.165-.643-.441-.831l-.031-.022-6.072-4.501A1.096 1.096 0 0010 2.803zm-.278 10.771l4.959-4.959-1.273-1.272-4.718 4.718-2.097-2.097-1.273 1.272 2.339 2.339c.284.284.657.425 1.031.425.374 0 .747-.142 1.032-.426z"></path>
</svg>
