<svg fill="currentColor" width="20" height="20" viewBox="0 0 20 20" xmlns="http://www.w3.org/2000/svg">
  <path d="M15 12.05c1.08 0 1.95.87 1.95 1.95s-.87 1.95-1.95 1.95-1.95-.87-1.95-1.95.87-1.95 1.95-1.95zm0-1.8c-2.07 0-3.75 1.68-3.75 3.75 0 2.07 1.68 3.75 3.75 3.75 2.07 0 3.75-1.68 3.75-3.75 0-2.07-1.68-3.75-3.75-3.75zM5 12.05c1.08 0 1.95.87 1.95 1.95S6.08 15.95 5 15.95 3.05 15.08 3.05 14s.87-1.95 1.95-1.95zm0-1.8c-2.07 0-3.75 1.68-3.75 3.75 0 2.07 1.68 3.75 3.75 3.75 2.07 0 3.75-1.68 3.75-3.75 0-2.07-1.68-3.75-3.75-3.75zM10 4.05c1.08 0 1.95.87 1.95 1.95S11.08 7.95 10 7.95 8.05 7.08 8.05 6 8.92 4.05 10 4.05zm0-1.8C7.93 2.25 6.25 3.93 6.25 6c0 2.07 1.68 3.75 3.75 3.75 2.07 0 3.75-1.68 3.75-3.75 0-2.07-1.68-3.75-3.75-3.75z"></path>
</svg>
