<svg rpl="" fill="currentColor" height="20" icon-name="hide" viewBox="0 0 20 20" width="20" xmlns="http://www.w3.org/2000/svg"> <!--?lit$997765836$--><!--?lit$997765836$--><path d="M3.497 3.503a.9.9 0 10-1.273 1.273l.909.909A10.141 10.141 0 00.92 8.472a3.225 3.225 0 000 3.058A10.296 10.296 0 0010 16.973a10.13 10.13 0 003.709-.712l1.457 1.457a.897.897 0 001.274 0 .9.9 0 000-1.273L3.497 3.503zM10 15.172a8.497 8.497 0 01-7.495-4.494 1.448 1.448 0 010-1.354 8.436 8.436 0 011.9-2.365l2.069 2.068c-.062.271-.105.55-.105.84a3.77 3.77 0 003.767 3.767c.29 0 .569-.043.84-.106l1.31 1.31a8.284 8.284 0 01-2.284.335L10 15.172zm.476-7.237L8.874 6.333a3.722 3.722 0 011.26-.233 3.77 3.77 0 013.767 3.767c0 .444-.091.864-.233 1.26l-1.603-1.603a1.963 1.963 0 00-1.59-1.589zm8.605 3.595a10.297 10.297 0 01-2.22 2.792L15.59 13.05a8.512 8.512 0 001.905-2.372 1.448 1.448 0 000-1.354A8.496 8.496 0 007.69 5.15L6.282 3.742A10.249 10.249 0 0110 3.028c3.8 0 7.28 2.087 9.08 5.444a3.225 3.225 0 010 3.058z"></path><!--?--> </svg>