<?xml version="1.0" encoding="UTF-8"?>
<svg version="1.1" xmlns="http://www.w3.org/2000/svg" width="512" height="512">
<path d="M0 0 C2.45767104 -0.00434431 4.91349783 -0.04069043 7.37084961 -0.07861328 C37.07404704 -0.28855155 63.78937359 11.2816502 85.04858398 31.99560547 C104.24033584 51.31830541 115.22162375 77.60670402 115.150177 104.83207703 C115.13996973 106.25507768 115.12953785 107.67807674 115.11889648 109.10107422 C115.11515714 110.5875072 115.11231453 112.07394268 115.11032104 113.56037903 C115.10275701 117.43518111 115.0831725 121.30982851 115.06091309 125.18457031 C115.04029706 129.1534618 115.03128595 133.12237877 115.02124023 137.09130859 C114.99991825 144.85114403 114.96587199 152.61085291 114.92358398 160.37060547 C115.94983887 160.35966103 115.94983887 160.35966103 116.99682617 160.34849548 C117.895625 160.34282059 118.79442383 160.33714569 119.72045898 160.33129883 C120.61087891 160.32400253 121.50129883 160.31670624 122.41870117 160.30918884 C133.46530382 160.58003787 142.87754578 167.45001969 150.67358398 174.68310547 C161.82796639 186.46886801 163.37571978 199.53610275 163.32763672 215.02514648 C163.3333483 216.69360306 163.34031559 218.36205573 163.34843445 220.03050232 C163.36630178 224.53922913 163.36520866 229.04776061 163.35949206 233.55651212 C163.35638842 237.3356098 163.36250625 241.11467059 163.36853081 244.89376301 C163.3825557 253.82170363 163.38103399 262.74954854 163.36962891 271.67749023 C163.35817198 280.84786436 163.37218713 290.01794519 163.39902538 299.18828064 C163.42128405 307.09358657 163.42779634 314.99880113 163.42194897 322.90413612 C163.41859968 327.61121163 163.42085693 332.31809961 163.4382 337.02514839 C163.45382815 341.46013393 163.44954057 345.89469084 163.43089485 350.32966042 C163.42725121 351.94314755 163.43019141 353.55666756 163.44078064 355.17012405 C163.60058845 381.56803525 154.42947048 404.45974869 135.93139648 423.51904297 C120.762902 438.365446 99.40537619 448.44069859 78.09037781 448.51777649 C77.42754329 448.52145318 76.76470877 448.52512987 76.08178836 448.52891797 C73.8736907 448.53987899 71.66564023 448.54378576 69.45751953 448.54760742 C67.86847283 448.55387814 66.27942759 448.56052548 64.69038391 448.56752014 C59.48036712 448.58850249 54.27035025 448.59892175 49.06030273 448.60888672 C47.2596771 448.6129374 45.45905162 448.61705441 43.65842628 448.6212368 C35.19072398 448.64028105 26.72303031 448.65450987 18.25531071 448.66284877 C8.51878065 448.67259807 -1.21752067 448.69886029 -10.95397025 448.73934966 C-18.50249164 448.76964964 -26.05094801 448.78433099 -33.59952897 448.78762978 C-38.09654454 448.78996578 -42.5933156 448.79873412 -47.09026527 448.82409096 C-51.33146401 448.84761901 -55.57226155 448.8515073 -59.81350899 448.84132957 C-61.35605465 448.84083994 -62.89862176 448.8469878 -64.44110489 448.86088562 C-91.05448092 449.08692846 -113.44659454 439.32523119 -132.67407227 420.87841797 C-150.43404956 402.37729789 -157.55860406 379.47382553 -157.48046875 354.2043457 C-157.48618432 352.51748201 -157.49315312 350.83062218 -157.50126648 349.14376831 C-157.51907842 344.60043221 -157.51805268 340.05729049 -157.51232409 335.51393008 C-157.50921594 331.7068721 -157.51534241 327.89985058 -157.52136284 324.09279782 C-157.53536608 315.10699985 -157.53388087 306.12129705 -157.52246094 297.13549805 C-157.51097352 287.89282238 -157.52507549 278.65043668 -157.55185741 269.40779918 C-157.57406465 261.44306357 -157.5806408 253.47841865 -157.574781 245.51365429 C-157.57142348 240.76933623 -157.5737464 236.02520415 -157.59103203 231.2809124 C-157.6065804 226.81963801 -157.60245884 222.35879139 -157.58372688 217.89753342 C-157.58006328 216.26904312 -157.58308376 214.64052055 -157.59361267 213.01206017 C-157.69068697 196.7452629 -153.99914896 184.73027871 -142.76391602 172.62060547 C-134.75908432 165.04460404 -124.96612806 160.27893405 -113.90063477 160.34277344 C-112.54651489 160.34880081 -112.54651489 160.34880081 -111.16503906 160.35494995 C-110.13117065 160.36269943 -110.13117065 160.36269943 -109.07641602 160.37060547 C-109.08307785 159.56453354 -109.08973969 158.75846161 -109.09660339 157.92796326 C-109.15715711 150.26554277 -109.20261243 142.60324118 -109.23185253 134.94064236 C-109.24739137 131.00288475 -109.26840886 127.06532775 -109.30273438 123.12768555 C-109.33575512 119.31509035 -109.35335713 115.50268592 -109.36104774 111.68995857 C-109.36651581 110.24816962 -109.37718874 108.806389 -109.39360619 107.36468315 C-109.71690964 77.74782067 -98.06311172 51.39986451 -77.45141602 30.24560547 C-63.59504895 16.48314167 -46.05518515 6.9841081 -27.07641602 2.37060547 C-26.35526611 2.19400391 -25.63411621 2.01740234 -24.89111328 1.83544922 C-16.62765434 0.05989545 -8.41371085 -0.00165608 0 0 Z M-55.07641602 55.37060547 C-55.84856445 56.10794922 -56.62071289 56.84529297 -57.41625977 57.60498047 C-83.79605139 84.48080237 -77.07641602 126.63560885 -77.07641602 160.37060547 C-24.27641602 160.37060547 28.52358398 160.37060547 82.92358398 160.37060547 C85.87686788 101.9929005 85.87686788 101.9929005 59.92358398 54.37060547 C59.18624023 53.59845703 58.44889648 52.82630859 57.68920898 52.03076172 C44.94832778 39.525031 26.58315893 32.96011232 8.92358398 32.37060547 C8.00448242 32.33064453 7.08538086 32.29068359 6.13842773 32.24951172 C-17.45554796 31.70967647 -38.11610697 38.49412003 -55.07641602 55.37060547 Z M-121.01391602 198.12060547 C-125.92377167 205.85734771 -125.36324898 213.71971713 -125.33520508 222.62084961 C-125.33791823 224.06713029 -125.34148098 225.51340958 -125.3458252 226.95968628 C-125.35491867 230.87541081 -125.35141601 234.79102957 -125.34506702 238.70675588 C-125.33998446 242.82016731 -125.34470536 246.93357 -125.34783936 251.04698181 C-125.35147531 257.96110651 -125.34669264 264.87518845 -125.3371582 271.78930664 C-125.32630451 279.75138709 -125.32977821 287.71336485 -125.34081101 295.67544276 C-125.34993061 302.53435354 -125.35114556 309.39323367 -125.34593368 316.25214857 C-125.34283564 320.33816577 -125.34234376 324.42413499 -125.34900665 328.510149 C-125.3548467 332.36059284 -125.35066345 336.21090653 -125.33921814 340.06133652 C-125.33660543 341.46322223 -125.33727746 342.86511917 -125.34174347 344.2670002 C-125.40413307 365.86773644 -121.62557291 383.92239044 -106.56469727 400.04638672 C-91.3811148 414.22885386 -73.2758458 416.52303544 -53.40942383 416.51586914 C-52.04989531 416.51886698 -50.69036764 416.52227094 -49.33084106 416.52604675 C-45.66119208 416.53482786 -41.99156647 416.53722238 -38.321908 416.53786254 C-36.02234979 416.53857645 -33.72279741 416.54071721 -31.42324066 416.54335976 C-23.38119636 416.55259405 -15.33916857 416.55669709 -7.29711914 416.5559082 C0.16741749 416.55530809 7.6318817 416.56585176 15.09640002 416.58165187 C21.53155438 416.59478165 27.96668522 416.60008982 34.40185285 416.59945279 C38.23351167 416.59919938 42.06510607 416.60196314 45.8967514 416.61263084 C49.50508179 416.62240381 53.11328735 416.62232894 56.72162247 416.61511421 C58.65492619 416.61359161 60.58823016 416.62185056 62.52151489 416.6305542 C82.71885116 416.55893244 99.62790003 411.84322235 114.59936523 397.85888672 C129.38798746 382.02636175 131.06927066 363.29718122 131.0847168 342.70043945 C131.08935518 341.24560422 131.09438118 339.79077018 131.09976196 338.3359375 C131.1127817 334.41249719 131.11930924 330.48907391 131.12377262 326.56561542 C131.12671766 324.10946158 131.13082486 321.65331226 131.13527679 319.19716072 C131.14891838 311.49728591 131.15860378 303.79742159 131.16247869 296.09753555 C131.16696454 287.23544946 131.18455088 278.37351721 131.21347928 269.51147789 C131.23512633 262.63985172 131.24518442 255.76826878 131.2465198 248.89660889 C131.24756479 244.80125074 131.25340827 240.70603787 131.27133942 236.61071587 C131.28787478 232.76021893 131.28994933 228.90997576 131.28120041 225.05945587 C131.2804332 223.65223318 131.28473072 222.24499649 131.29465866 220.83780861 C131.59171718 208.62695745 131.59171718 208.62695745 126.64860916 197.794837 C120.66191345 192.26796707 113.3126657 192.07558737 105.63845825 192.10990906 C104.72411164 192.10608351 103.80976503 192.10225796 102.86771095 192.09831649 C99.81482438 192.0880272 96.76212733 192.09197092 93.70922852 192.09594727 C91.51592841 192.09159854 89.32262983 192.08641485 87.1293335 192.08045959 C81.17890313 192.06707555 75.2285363 192.06649029 69.27809381 192.06902289 C64.30792921 192.07009303 59.33777744 192.06520813 54.36761558 192.06041747 C41.97037522 192.04869023 29.57316617 192.04954619 17.17592393 192.05597428 C6.42211284 192.06114221 -4.33160764 192.04988982 -15.0854008 192.03087606 C-26.14058654 192.01148002 -37.19572734 192.00353593 -48.25092995 192.00699931 C-54.45229069 192.00881144 -60.65356843 192.0061829 -66.85491562 191.99228477 C-72.68753081 191.97970203 -78.51996477 191.98165494 -84.35257721 191.99469566 C-86.4902795 191.99706002 -88.62799457 191.99433184 -90.76568222 191.98607254 C-93.68977184 191.97559159 -96.61325484 191.98371679 -99.537323 191.99638367 C-100.37790501 191.98900938 -101.21848701 191.9816351 -102.0845412 191.97403735 C-108.83321013 192.03529898 -116.24677034 192.88142814 -121.01391602 198.12060547 Z " fill="#000000" transform="translate(253.076416015625,31.62939453125)"/>
<path d="M0 0 C6.69421246 5.68110368 10.61756703 12.74017056 11.35546875 21.4765625 C11.83754857 33.03555286 9.62019429 40.38858227 1.8203125 49.00390625 C0.0390625 50.73046875 0.0390625 50.73046875 -2.04211426 51.99028015 C-4.19553745 53.59445522 -4.19553745 53.59445522 -4.45300293 56.25276184 C-4.44982056 57.25836655 -4.44663818 58.26397125 -4.44335938 59.30004883 C-4.45016724 60.4416597 -4.4569751 61.58327057 -4.46398926 62.75947571 C-4.45266968 63.99384872 -4.4413501 65.22822174 -4.4296875 66.5 C-4.43673706 67.76889572 -4.44378662 69.03779144 -4.4510498 70.34513855 C-4.47690238 75.09918282 -4.46754128 79.85268487 -4.45587158 84.60675049 C-4.44634045 89.25890945 -4.46640018 93.91037493 -4.4921875 98.5625 C-4.48086792 99.79080032 -4.46954834 101.01910065 -4.45788574 102.28462219 C-4.49595502 108.72134379 -4.53033163 112.88640069 -8.9609375 117.73046875 C-12.78023922 121.35880538 -15.84372756 122.04047333 -20.9609375 122.23046875 C-26.07814744 122.04047333 -29.14163578 121.35880538 -32.9609375 117.73046875 C-38.18754646 112.01812212 -37.43505822 106.13969705 -37.2890625 98.703125 C-37.28405842 96.11133001 -37.28018696 93.51953263 -37.27734375 90.92773438 C-37.25464031 86.85455564 -37.21245134 82.78198478 -37.14990234 78.70922852 C-37.09177816 74.76948846 -37.09722765 70.83079689 -37.1015625 66.890625 C-37.06959778 65.67689713 -37.03763306 64.46316925 -37.00469971 63.21266174 C-36.94124863 56.92217032 -36.94124863 56.92217032 -39.6986084 51.48532104 C-41.77454372 49.6172951 -41.77454372 49.6172951 -43.96038818 48.1469574 C-48.93691707 44.62332686 -51.39269714 39.48756165 -52.9609375 33.73046875 C-53.98156053 22.38493834 -53.09091515 12.7546695 -45.9609375 3.48046875 C-33.3983003 -9.92511597 -14.37366862 -10.28504557 0 0 Z " fill="#000000" transform="translate(276.9609375,278.26953125)"/>
</svg>
