<?xml version="1.0" encoding="UTF-8"?>
<svg xmlns="http://www.w3.org/2000/svg" xmlns:xlink="http://www.w3.org/1999/xlink" width="20px" height="20px" viewBox="0 0 20 20" version="1.1">
<g id="surface1">
<path style=" stroke:none;fill-rule:nonzero;fill:rgb(0%,0%,0%);fill-opacity:1;" d="M 1.027344 15.496094 C 1.058594 15.496094 1.089844 15.496094 1.121094 15.496094 C 1.226562 15.496094 1.332031 15.496094 1.441406 15.496094 C 1.515625 15.496094 1.59375 15.496094 1.667969 15.496094 C 1.878906 15.496094 2.089844 15.496094 2.300781 15.496094 C 2.53125 15.496094 2.757812 15.496094 2.984375 15.496094 C 3.429688 15.496094 3.875 15.496094 4.320312 15.496094 C 4.683594 15.496094 5.042969 15.496094 5.40625 15.496094 C 5.484375 15.496094 5.484375 15.496094 5.5625 15.496094 C 5.640625 15.496094 5.71875 15.496094 5.796875 15.496094 C 6.527344 15.496094 7.253906 15.496094 7.980469 15.496094 C 8.011719 15.496094 8.039062 15.496094 8.066406 15.496094 C 8.203125 15.496094 8.34375 15.496094 8.484375 15.496094 C 8.511719 15.496094 8.539062 15.496094 8.566406 15.496094 C 8.621094 15.496094 8.679688 15.496094 8.734375 15.496094 C 9.605469 15.496094 10.472656 15.496094 11.34375 15.496094 C 12.320312 15.492188 13.300781 15.492188 14.277344 15.492188 C 14.792969 15.492188 15.3125 15.492188 15.828125 15.492188 C 16.269531 15.492188 16.710938 15.492188 17.148438 15.492188 C 17.375 15.492188 17.601562 15.492188 17.824219 15.492188 C 18.03125 15.492188 18.234375 15.492188 18.441406 15.492188 C 18.515625 15.492188 18.589844 15.492188 18.664062 15.492188 C 18.765625 15.492188 18.867188 15.492188 18.96875 15.492188 C 18.996094 15.492188 19.027344 15.492188 19.054688 15.492188 C 19.3125 15.496094 19.558594 15.558594 19.757812 15.734375 C 19.78125 15.753906 19.800781 15.769531 19.824219 15.789062 C 20.011719 16.011719 20.023438 16.226562 20.015625 16.507812 C 19.988281 16.753906 19.867188 16.902344 19.691406 17.066406 C 19.472656 17.214844 19.273438 17.238281 19.015625 17.238281 C 18.96875 17.238281 18.96875 17.238281 18.921875 17.238281 C 18.8125 17.238281 18.707031 17.238281 18.601562 17.238281 C 18.523438 17.238281 18.445312 17.238281 18.371094 17.238281 C 18.160156 17.238281 17.945312 17.238281 17.734375 17.238281 C 17.507812 17.238281 17.277344 17.238281 17.050781 17.238281 C 16.601562 17.238281 16.15625 17.238281 15.707031 17.238281 C 15.34375 17.238281 14.980469 17.238281 14.617188 17.238281 C 14.566406 17.238281 14.511719 17.238281 14.460938 17.238281 C 14.382812 17.238281 14.304688 17.238281 14.222656 17.238281 C 13.492188 17.238281 12.761719 17.238281 12.03125 17.238281 C 11.988281 17.238281 11.988281 17.238281 11.945312 17.238281 C 11.804688 17.238281 11.667969 17.238281 11.527344 17.238281 C 11.5 17.238281 11.472656 17.238281 11.441406 17.238281 C 11.386719 17.238281 11.328125 17.238281 11.273438 17.238281 C 10.398438 17.238281 9.527344 17.238281 8.652344 17.238281 C 7.671875 17.242188 6.6875 17.242188 5.707031 17.242188 C 5.601562 17.242188 5.496094 17.242188 5.394531 17.242188 C 5.34375 17.242188 5.289062 17.242188 5.238281 17.242188 C 4.875 17.242188 4.511719 17.242188 4.148438 17.242188 C 3.707031 17.242188 3.261719 17.242188 2.820312 17.242188 C 2.59375 17.242188 2.367188 17.242188 2.144531 17.242188 C 1.9375 17.242188 1.730469 17.242188 1.523438 17.242188 C 1.449219 17.242188 1.375 17.242188 1.296875 17.242188 C 1.195312 17.242188 1.09375 17.242188 0.992188 17.242188 C 0.964844 17.242188 0.933594 17.242188 0.90625 17.242188 C 0.667969 17.238281 0.449219 17.191406 0.265625 17.035156 C 0.242188 17.007812 0.222656 16.984375 0.199219 16.957031 C 0.167969 16.917969 0.167969 16.917969 0.132812 16.875 C -0.0390625 16.632812 -0.03125 16.386719 0 16.09375 C 0.0820312 15.871094 0.238281 15.714844 0.429688 15.585938 C 0.628906 15.515625 0.816406 15.496094 1.027344 15.496094 Z M 1.027344 15.496094 "/>
<path style=" stroke:none;fill-rule:nonzero;fill:rgb(0%,0%,0%);fill-opacity:1;" d="M 0.984375 2.722656 C 1.015625 2.722656 1.046875 2.722656 1.078125 2.722656 C 1.1875 2.722656 1.292969 2.722656 1.398438 2.722656 C 1.476562 2.722656 1.550781 2.722656 1.628906 2.722656 C 1.839844 2.722656 2.054688 2.722656 2.265625 2.722656 C 2.492188 2.722656 2.722656 2.722656 2.949219 2.722656 C 3.398438 2.722656 3.84375 2.722656 4.289062 2.722656 C 4.65625 2.722656 5.019531 2.722656 5.382812 2.722656 C 5.484375 2.722656 5.589844 2.722656 5.695312 2.71875 C 5.734375 2.71875 5.734375 2.71875 5.773438 2.71875 C 6.503906 2.71875 7.238281 2.71875 7.96875 2.71875 C 7.996094 2.71875 8.023438 2.71875 8.050781 2.71875 C 8.191406 2.71875 8.332031 2.71875 8.472656 2.71875 C 8.5 2.71875 8.527344 2.71875 8.554688 2.71875 C 8.613281 2.71875 8.667969 2.71875 8.722656 2.71875 C 9.597656 2.71875 10.472656 2.71875 11.34375 2.71875 C 12.328125 2.71875 13.308594 2.714844 14.289062 2.714844 C 14.808594 2.714844 15.328125 2.714844 15.847656 2.714844 C 16.289062 2.714844 16.734375 2.714844 17.175781 2.714844 C 17.402344 2.714844 17.625 2.714844 17.851562 2.714844 C 18.058594 2.714844 18.265625 2.714844 18.472656 2.714844 C 18.546875 2.714844 18.621094 2.714844 18.695312 2.714844 C 19.5 2.710938 19.5 2.710938 19.761719 2.960938 C 19.984375 3.203125 20.019531 3.398438 20.015625 3.730469 C 19.988281 3.980469 19.871094 4.128906 19.691406 4.292969 C 19.472656 4.441406 19.273438 4.464844 19.015625 4.464844 C 18.96875 4.464844 18.96875 4.464844 18.921875 4.464844 C 18.8125 4.464844 18.707031 4.464844 18.601562 4.464844 C 18.523438 4.464844 18.449219 4.464844 18.371094 4.464844 C 18.160156 4.464844 17.945312 4.464844 17.734375 4.464844 C 17.507812 4.464844 17.277344 4.464844 17.050781 4.464844 C 16.601562 4.464844 16.15625 4.464844 15.710938 4.464844 C 15.34375 4.464844 14.980469 4.464844 14.617188 4.464844 C 14.515625 4.464844 14.410156 4.464844 14.304688 4.46875 C 14.265625 4.46875 14.265625 4.46875 14.226562 4.46875 C 13.496094 4.46875 12.761719 4.46875 12.03125 4.46875 C 12.003906 4.46875 11.976562 4.46875 11.949219 4.46875 C 11.808594 4.46875 11.667969 4.46875 11.527344 4.46875 C 11.5 4.46875 11.472656 4.46875 11.445312 4.46875 C 11.386719 4.46875 11.332031 4.46875 11.277344 4.46875 C 10.402344 4.46875 9.527344 4.46875 8.65625 4.46875 C 7.671875 4.46875 6.691406 4.472656 5.710938 4.472656 C 5.191406 4.472656 4.671875 4.472656 4.152344 4.472656 C 3.710938 4.472656 3.265625 4.472656 2.824219 4.472656 C 2.597656 4.472656 2.375 4.472656 2.148438 4.472656 C 1.941406 4.472656 1.734375 4.472656 1.527344 4.472656 C 1.453125 4.472656 1.378906 4.472656 1.304688 4.472656 C 0.5 4.476562 0.5 4.476562 0.238281 4.226562 C 0.015625 3.984375 -0.0195312 3.789062 -0.015625 3.457031 C 0.0117188 3.207031 0.128906 3.058594 0.308594 2.894531 C 0.527344 2.746094 0.726562 2.722656 0.984375 2.722656 Z M 0.984375 2.722656 "/>
<path style=" stroke:none;fill-rule:nonzero;fill:rgb(0%,0%,0%);fill-opacity:1;" d="M 0.894531 9.136719 C 0.941406 9.136719 0.941406 9.136719 0.988281 9.136719 C 1.097656 9.136719 1.207031 9.136719 1.3125 9.136719 C 1.390625 9.132812 1.46875 9.132812 1.546875 9.132812 C 1.757812 9.132812 1.972656 9.132812 2.1875 9.132812 C 2.417969 9.132812 2.648438 9.132812 2.878906 9.132812 C 3.40625 9.132812 3.9375 9.132812 4.46875 9.132812 C 4.730469 9.132812 4.992188 9.132812 5.253906 9.132812 C 6.152344 9.128906 7.046875 9.128906 7.945312 9.128906 C 8 9.128906 8.054688 9.128906 8.113281 9.128906 C 8.140625 9.128906 8.167969 9.128906 8.199219 9.128906 C 8.339844 9.128906 8.480469 9.128906 8.621094 9.128906 C 8.648438 9.128906 8.679688 9.128906 8.707031 9.128906 C 9.617188 9.128906 10.527344 9.128906 11.4375 9.125 C 12.398438 9.125 13.363281 9.125 14.324219 9.125 C 14.429688 9.125 14.535156 9.125 14.640625 9.125 C 14.667969 9.125 14.691406 9.125 14.71875 9.125 C 15.113281 9.125 15.503906 9.125 15.898438 9.121094 C 16.34375 9.121094 16.792969 9.121094 17.238281 9.121094 C 17.464844 9.121094 17.695312 9.121094 17.921875 9.121094 C 18.128906 9.121094 18.339844 9.121094 18.546875 9.121094 C 18.621094 9.121094 18.699219 9.121094 18.773438 9.121094 C 18.875 9.121094 18.980469 9.121094 19.082031 9.121094 C 19.109375 9.121094 19.140625 9.121094 19.171875 9.121094 C 19.417969 9.125 19.628906 9.199219 19.808594 9.375 C 19.824219 9.402344 19.84375 9.429688 19.859375 9.457031 C 19.878906 9.480469 19.898438 9.507812 19.917969 9.535156 C 20.050781 9.761719 20.039062 10.078125 19.976562 10.328125 C 19.882812 10.539062 19.726562 10.664062 19.53125 10.78125 C 19.386719 10.828125 19.253906 10.824219 19.105469 10.824219 C 19.074219 10.824219 19.042969 10.824219 19.011719 10.824219 C 18.902344 10.824219 18.792969 10.824219 18.6875 10.824219 C 18.609375 10.828125 18.53125 10.828125 18.453125 10.828125 C 18.242188 10.828125 18.027344 10.828125 17.8125 10.828125 C 17.582031 10.828125 17.351562 10.828125 17.121094 10.828125 C 16.59375 10.828125 16.0625 10.828125 15.53125 10.828125 C 15.269531 10.828125 15.007812 10.828125 14.746094 10.828125 C 13.847656 10.832031 12.953125 10.832031 12.054688 10.832031 C 12 10.832031 11.945312 10.832031 11.886719 10.832031 C 11.859375 10.832031 11.832031 10.832031 11.800781 10.832031 C 11.660156 10.832031 11.519531 10.832031 11.378906 10.832031 C 11.351562 10.832031 11.320312 10.832031 11.292969 10.832031 C 10.382812 10.832031 9.472656 10.832031 8.5625 10.835938 C 7.601562 10.835938 6.636719 10.835938 5.675781 10.835938 C 5.570312 10.835938 5.464844 10.835938 5.359375 10.835938 C 5.320312 10.835938 5.320312 10.835938 5.28125 10.835938 C 4.886719 10.835938 4.496094 10.835938 4.101562 10.839844 C 3.65625 10.839844 3.207031 10.839844 2.761719 10.839844 C 2.535156 10.839844 2.304688 10.839844 2.078125 10.839844 C 1.871094 10.839844 1.660156 10.839844 1.453125 10.839844 C 1.378906 10.839844 1.300781 10.839844 1.226562 10.839844 C 1.125 10.839844 1.019531 10.839844 0.917969 10.839844 C 0.875 10.839844 0.875 10.839844 0.828125 10.839844 C 0.582031 10.835938 0.371094 10.761719 0.191406 10.585938 C 0.167969 10.546875 0.167969 10.546875 0.140625 10.503906 C 0.113281 10.464844 0.113281 10.464844 0.0820312 10.425781 C -0.0507812 10.199219 -0.0390625 9.882812 0.0234375 9.632812 C 0.117188 9.421875 0.273438 9.296875 0.46875 9.179688 C 0.613281 9.132812 0.746094 9.136719 0.894531 9.136719 Z M 0.894531 9.136719 "/>
</g>
</svg>
