<?xml version="1.0" encoding="UTF-8"?>
<svg xmlns="http://www.w3.org/2000/svg" xmlns:xlink="http://www.w3.org/1999/xlink" width="20px" height="20px" viewBox="0 0 20 20" version="1.1">
<g id="surface1">
<path style=" stroke:none;fill-rule:nonzero;fill:rgb(0%,0%,0%);fill-opacity:1;" d="M 9.328125 -0.0195312 C 9.375 -0.0195312 9.425781 -0.0195312 9.480469 -0.0195312 C 9.585938 -0.0195312 9.691406 -0.0195312 9.796875 -0.0195312 C 9.933594 -0.0195312 10.070312 -0.0195312 10.203125 -0.0195312 C 10.335938 -0.0234375 10.464844 -0.0195312 10.59375 -0.0195312 C 10.644531 -0.0195312 10.691406 -0.0195312 10.742188 -0.0234375 C 11.152344 -0.015625 11.46875 0.0703125 11.769531 0.359375 C 12.070312 0.6875 12.132812 1.144531 12.203125 1.570312 C 12.214844 1.652344 12.226562 1.730469 12.242188 1.808594 C 12.308594 2.234375 12.308594 2.234375 12.304688 2.421875 C 12.351562 2.429688 12.398438 2.4375 12.445312 2.445312 C 12.839844 2.535156 13.222656 2.71875 13.582031 2.902344 C 13.671875 2.941406 13.671875 2.941406 13.746094 2.898438 C 13.832031 2.851562 13.910156 2.796875 13.992188 2.742188 C 14.023438 2.722656 14.054688 2.699219 14.085938 2.679688 C 14.117188 2.65625 14.152344 2.632812 14.183594 2.609375 C 14.21875 2.585938 14.25 2.5625 14.285156 2.539062 C 14.457031 2.421875 14.625 2.304688 14.796875 2.183594 C 15.160156 1.925781 15.5 1.882812 15.9375 1.953125 C 16.445312 2.105469 16.851562 2.625 17.21875 2.992188 C 17.28125 3.050781 17.34375 3.113281 17.402344 3.171875 C 17.761719 3.527344 18.082031 3.886719 18.101562 4.410156 C 18.085938 4.761719 17.972656 5.007812 17.777344 5.296875 C 17.757812 5.320312 17.738281 5.347656 17.722656 5.375 C 17.621094 5.519531 17.515625 5.652344 17.394531 5.78125 C 17.183594 6.007812 17.183594 6.007812 17.070312 6.289062 C 17.113281 6.589844 17.261719 6.859375 17.40625 7.125 C 17.496094 7.292969 17.578125 7.460938 17.578125 7.65625 C 17.601562 7.65625 17.628906 7.660156 17.652344 7.660156 C 17.957031 7.6875 18.257812 7.734375 18.558594 7.785156 C 18.605469 7.792969 18.652344 7.800781 18.703125 7.808594 C 19.144531 7.886719 19.542969 8.011719 19.816406 8.390625 C 19.941406 8.601562 20.007812 8.78125 20.011719 9.023438 C 20.011719 9.09375 20.011719 9.09375 20.011719 9.164062 C 20.011719 9.238281 20.011719 9.238281 20.011719 9.316406 C 20.011719 9.367188 20.011719 9.421875 20.015625 9.472656 C 20.015625 9.582031 20.015625 9.691406 20.015625 9.800781 C 20.015625 9.941406 20.015625 10.078125 20.015625 10.21875 C 20.019531 10.324219 20.019531 10.433594 20.019531 10.542969 C 20.019531 10.617188 20.019531 10.695312 20.019531 10.769531 C 20.019531 11.171875 19.9375 11.507812 19.652344 11.804688 C 19.292969 12.109375 18.847656 12.171875 18.398438 12.242188 C 18.335938 12.25 18.273438 12.261719 18.210938 12.273438 C 17.769531 12.34375 17.769531 12.34375 17.578125 12.34375 C 17.574219 12.363281 17.566406 12.382812 17.5625 12.40625 C 17.5 12.636719 17.414062 12.855469 17.324219 13.074219 C 17.308594 13.117188 17.308594 13.117188 17.289062 13.160156 C 17.238281 13.289062 17.183594 13.40625 17.117188 13.523438 C 17.0625 13.628906 17.0625 13.628906 17.089844 13.726562 C 17.175781 13.871094 17.269531 14.011719 17.371094 14.148438 C 17.390625 14.175781 17.414062 14.207031 17.433594 14.238281 C 17.523438 14.363281 17.613281 14.488281 17.703125 14.609375 C 17.945312 14.941406 18.105469 15.253906 18.082031 15.671875 C 18.078125 15.734375 18.078125 15.734375 18.074219 15.796875 C 18 16.175781 17.773438 16.433594 17.503906 16.703125 C 17.453125 16.753906 17.453125 16.753906 17.402344 16.804688 C 17.332031 16.875 17.261719 16.945312 17.191406 17.015625 C 17.082031 17.125 16.976562 17.230469 16.871094 17.339844 C 16.800781 17.410156 16.730469 17.476562 16.664062 17.546875 C 16.628906 17.578125 16.597656 17.613281 16.566406 17.644531 C 16.28125 17.925781 15.980469 18.0625 15.582031 18.09375 C 15.210938 18.070312 14.929688 17.949219 14.636719 17.730469 C 14.605469 17.710938 14.574219 17.6875 14.539062 17.664062 C 14.390625 17.558594 14.242188 17.449219 14.097656 17.339844 C 14.070312 17.320312 14.046875 17.300781 14.023438 17.28125 C 13.976562 17.246094 13.933594 17.210938 13.886719 17.175781 C 13.820312 17.121094 13.820312 17.121094 13.710938 17.070312 C 13.59375 17.085938 13.59375 17.085938 13.476562 17.148438 C 13.429688 17.167969 13.378906 17.191406 13.332031 17.210938 C 13.28125 17.234375 13.226562 17.257812 13.175781 17.28125 C 12.503906 17.578125 12.503906 17.578125 12.34375 17.578125 C 12.339844 17.613281 12.339844 17.613281 12.339844 17.652344 C 12.3125 17.957031 12.269531 18.253906 12.21875 18.550781 C 12.210938 18.597656 12.203125 18.644531 12.199219 18.691406 C 12.125 19.105469 12 19.523438 11.652344 19.785156 C 11.328125 20 11.015625 20.023438 10.632812 20.019531 C 10.585938 20.019531 10.535156 20.019531 10.480469 20.019531 C 10.375 20.019531 10.269531 20.019531 10.164062 20.019531 C 10.027344 20.019531 9.890625 20.019531 9.757812 20.019531 C 9.625 20.023438 9.496094 20.019531 9.367188 20.019531 C 9.316406 20.019531 9.269531 20.019531 9.21875 20.023438 C 8.789062 20.015625 8.472656 19.914062 8.160156 19.613281 C 7.832031 19.246094 7.804688 18.6875 7.726562 18.222656 C 7.71875 18.179688 7.714844 18.140625 7.707031 18.097656 C 7.699219 18.058594 7.691406 18.019531 7.6875 17.980469 C 7.679688 17.945312 7.675781 17.910156 7.667969 17.875 C 7.65625 17.773438 7.652344 17.679688 7.65625 17.578125 C 7.636719 17.574219 7.613281 17.566406 7.589844 17.5625 C 7.15625 17.4375 6.742188 17.253906 6.328125 17.070312 C 6.292969 17.097656 6.253906 17.128906 6.214844 17.15625 C 5.925781 17.378906 5.628906 17.59375 5.328125 17.796875 C 5.296875 17.816406 5.269531 17.835938 5.238281 17.859375 C 4.882812 18.09375 4.558594 18.117188 4.140625 18.085938 C 3.640625 17.96875 3.246094 17.433594 2.894531 17.085938 C 2.832031 17.027344 2.773438 16.96875 2.710938 16.90625 C 2.621094 16.820312 2.53125 16.730469 2.441406 16.644531 C 2.402344 16.605469 2.402344 16.605469 2.359375 16.5625 C 2.097656 16.300781 1.953125 16 1.941406 15.621094 C 1.949219 15.226562 2.105469 14.953125 2.328125 14.636719 C 2.359375 14.59375 2.359375 14.59375 2.390625 14.550781 C 2.488281 14.410156 2.589844 14.28125 2.707031 14.160156 C 2.832031 14.027344 2.910156 13.925781 2.96875 13.75 C 2.929688 13.503906 2.792969 13.292969 2.671875 13.078125 C 2.566406 12.867188 2.496094 12.644531 2.421875 12.421875 C 2.355469 12.410156 2.355469 12.410156 2.289062 12.398438 C 2.121094 12.371094 1.957031 12.34375 1.789062 12.3125 C 1.71875 12.300781 1.648438 12.289062 1.574219 12.277344 C 1.472656 12.257812 1.371094 12.242188 1.265625 12.222656 C 1.21875 12.214844 1.21875 12.214844 1.171875 12.207031 C 0.800781 12.140625 0.488281 12 0.234375 11.71875 C 0.0703125 11.476562 -0.00390625 11.277344 -0.0078125 10.984375 C -0.0078125 10.9375 -0.0078125 10.894531 -0.0078125 10.847656 C -0.0078125 10.796875 -0.0078125 10.746094 -0.0078125 10.695312 C -0.0078125 10.644531 -0.0117188 10.59375 -0.0117188 10.542969 C -0.0117188 10.433594 -0.0117188 10.328125 -0.0117188 10.21875 C -0.0117188 10.082031 -0.0117188 9.945312 -0.015625 9.808594 C -0.015625 9.675781 -0.015625 9.542969 -0.015625 9.414062 C -0.015625 9.363281 -0.0195312 9.316406 -0.0195312 9.265625 C -0.0195312 8.855469 0.0664062 8.53125 0.355469 8.230469 C 0.695312 7.925781 1.125 7.886719 1.5625 7.8125 C 1.628906 7.800781 1.695312 7.789062 1.765625 7.777344 C 2.234375 7.695312 2.234375 7.695312 2.421875 7.695312 C 2.429688 7.648438 2.4375 7.601562 2.445312 7.554688 C 2.527344 7.183594 2.699219 6.816406 2.867188 6.476562 C 2.898438 6.386719 2.882812 6.34375 2.851562 6.25 C 2.800781 6.164062 2.800781 6.164062 2.738281 6.082031 C 2.714844 6.046875 2.691406 6.015625 2.667969 5.980469 C 2.644531 5.949219 2.621094 5.914062 2.59375 5.878906 C 2.546875 5.808594 2.496094 5.738281 2.445312 5.667969 C 2.421875 5.632812 2.398438 5.597656 2.371094 5.5625 C 2.285156 5.441406 2.203125 5.320312 2.117188 5.199219 C 2.097656 5.164062 2.074219 5.128906 2.050781 5.09375 C 1.855469 4.769531 1.851562 4.347656 1.941406 3.984375 C 2.144531 3.539062 2.609375 3.164062 2.953125 2.820312 C 3.011719 2.757812 3.074219 2.695312 3.132812 2.636719 C 3.496094 2.269531 3.851562 1.957031 4.390625 1.9375 C 4.914062 1.953125 5.332031 2.265625 5.710938 2.609375 C 5.988281 2.867188 5.988281 2.867188 6.339844 2.964844 C 6.527344 2.914062 6.6875 2.816406 6.847656 2.710938 C 6.941406 2.664062 7.007812 2.640625 7.109375 2.617188 C 7.277344 2.574219 7.441406 2.535156 7.578125 2.421875 C 7.707031 2.203125 7.714844 1.925781 7.738281 1.675781 C 7.753906 1.539062 7.773438 1.40625 7.789062 1.269531 C 7.796875 1.21875 7.796875 1.21875 7.804688 1.171875 C 7.855469 0.796875 7.996094 0.449219 8.308594 0.214844 C 8.632812 0 8.945312 -0.0234375 9.328125 -0.0195312 Z M 8.984375 1.210938 C 8.960938 1.289062 8.960938 1.289062 8.949219 1.378906 C 8.941406 1.433594 8.941406 1.433594 8.929688 1.488281 C 8.925781 1.523438 8.917969 1.5625 8.914062 1.601562 C 8.90625 1.640625 8.898438 1.679688 8.894531 1.71875 C 8.863281 1.886719 8.835938 2.054688 8.808594 2.222656 C 8.789062 2.347656 8.769531 2.46875 8.75 2.589844 C 8.738281 2.648438 8.738281 2.648438 8.730469 2.703125 C 8.644531 3.214844 8.644531 3.214844 8.4375 3.367188 C 8.25 3.460938 8.046875 3.515625 7.847656 3.578125 C 7.402344 3.71875 7.003906 3.910156 6.597656 4.140625 C 6.417969 4.234375 6.25 4.25 6.054688 4.21875 C 5.632812 4.046875 5.246094 3.6875 4.882812 3.417969 C 4.8125 3.367188 4.742188 3.316406 4.671875 3.265625 C 4.632812 3.238281 4.59375 3.210938 4.554688 3.179688 C 4.460938 3.117188 4.460938 3.117188 4.375 3.132812 C 4.285156 3.167969 4.238281 3.207031 4.167969 3.277344 C 4.128906 3.3125 4.128906 3.3125 4.09375 3.347656 C 4.054688 3.386719 4.054688 3.386719 4.015625 3.425781 C 3.988281 3.453125 3.960938 3.480469 3.933594 3.503906 C 3.878906 3.5625 3.820312 3.617188 3.765625 3.671875 C 3.679688 3.757812 3.59375 3.84375 3.503906 3.929688 C 3.449219 3.984375 3.394531 4.039062 3.339844 4.09375 C 3.316406 4.117188 3.289062 4.144531 3.261719 4.167969 C 3.121094 4.300781 3.121094 4.300781 3.085938 4.480469 C 3.144531 4.617188 3.226562 4.730469 3.3125 4.851562 C 3.328125 4.878906 3.347656 4.90625 3.367188 4.933594 C 3.472656 5.085938 3.582031 5.234375 3.691406 5.382812 C 3.714844 5.414062 3.738281 5.445312 3.761719 5.480469 C 3.804688 5.539062 3.847656 5.597656 3.894531 5.660156 C 4.207031 6.089844 4.207031 6.089844 4.195312 6.386719 C 4.160156 6.585938 4.058594 6.753906 3.96875 6.929688 C 3.761719 7.332031 3.605469 7.738281 3.480469 8.171875 C 3.40625 8.421875 3.355469 8.578125 3.125 8.710938 C 3.015625 8.75 2.90625 8.769531 2.789062 8.789062 C 2.757812 8.796875 2.726562 8.800781 2.691406 8.808594 C 2.5 8.839844 2.3125 8.871094 2.121094 8.902344 C 2.019531 8.921875 1.914062 8.9375 1.808594 8.953125 C 1.734375 8.96875 1.65625 8.980469 1.582031 8.992188 C 1.535156 9 1.488281 9.007812 1.4375 9.015625 C 1.375 9.023438 1.375 9.023438 1.3125 9.035156 C 1.199219 9.054688 1.199219 9.054688 1.132812 9.179688 C 1.121094 9.261719 1.121094 9.261719 1.121094 9.351562 C 1.121094 9.386719 1.121094 9.421875 1.121094 9.457031 C 1.121094 9.496094 1.121094 9.535156 1.121094 9.574219 C 1.121094 9.613281 1.121094 9.648438 1.121094 9.691406 C 1.121094 9.773438 1.121094 9.855469 1.121094 9.933594 C 1.121094 10.0625 1.121094 10.1875 1.121094 10.3125 C 1.121094 10.390625 1.121094 10.46875 1.121094 10.550781 C 1.121094 10.585938 1.121094 10.625 1.121094 10.664062 C 1.121094 10.699219 1.121094 10.734375 1.121094 10.769531 C 1.121094 10.800781 1.121094 10.832031 1.121094 10.863281 C 1.125 10.945312 1.125 10.945312 1.210938 11.015625 C 1.289062 11.039062 1.289062 11.039062 1.375 11.050781 C 1.429688 11.058594 1.429688 11.058594 1.480469 11.070312 C 1.519531 11.074219 1.554688 11.082031 1.59375 11.085938 C 1.632812 11.09375 1.671875 11.101562 1.710938 11.105469 C 1.875 11.136719 2.039062 11.164062 2.203125 11.191406 C 2.320312 11.210938 2.441406 11.230469 2.558594 11.25 C 2.617188 11.261719 2.617188 11.261719 2.671875 11.269531 C 2.914062 11.3125 3.140625 11.355469 3.328125 11.519531 C 3.4375 11.707031 3.492188 11.90625 3.558594 12.109375 C 3.707031 12.570312 3.902344 12.984375 4.140625 13.402344 C 4.242188 13.59375 4.253906 13.777344 4.21875 13.984375 C 4.148438 14.140625 4.046875 14.277344 3.945312 14.414062 C 3.90625 14.46875 3.863281 14.527344 3.824219 14.582031 C 3.5 15.039062 3.5 15.039062 3.332031 15.253906 C 3.304688 15.289062 3.277344 15.328125 3.246094 15.367188 C 3.222656 15.398438 3.199219 15.429688 3.171875 15.460938 C 3.117188 15.542969 3.117188 15.542969 3.132812 15.621094 C 3.167969 15.71875 3.210938 15.765625 3.285156 15.835938 C 3.308594 15.859375 3.332031 15.886719 3.359375 15.910156 C 3.398438 15.953125 3.398438 15.953125 3.441406 15.992188 C 3.46875 16.019531 3.496094 16.046875 3.523438 16.074219 C 3.613281 16.164062 3.703125 16.25 3.792969 16.335938 C 3.851562 16.398438 3.910156 16.457031 3.972656 16.515625 C 4.117188 16.664062 4.265625 16.808594 4.414062 16.953125 C 4.542969 16.90625 4.648438 16.855469 4.757812 16.773438 C 4.785156 16.753906 4.8125 16.734375 4.839844 16.714844 C 4.867188 16.691406 4.898438 16.671875 4.925781 16.648438 C 4.988281 16.601562 5.050781 16.558594 5.113281 16.511719 C 5.214844 16.4375 5.3125 16.367188 5.410156 16.292969 C 5.507812 16.222656 5.605469 16.152344 5.703125 16.082031 C 5.746094 16.050781 5.746094 16.050781 5.792969 16.019531 C 6 15.871094 6.1875 15.792969 6.445312 15.820312 C 6.597656 15.871094 6.730469 15.941406 6.871094 16.015625 C 7.164062 16.164062 7.453125 16.300781 7.765625 16.402344 C 7.816406 16.421875 7.816406 16.421875 7.863281 16.4375 C 7.925781 16.457031 7.984375 16.476562 8.046875 16.496094 C 8.152344 16.53125 8.253906 16.566406 8.359375 16.605469 C 8.386719 16.617188 8.414062 16.625 8.441406 16.636719 C 8.605469 16.730469 8.664062 16.847656 8.714844 17.023438 C 8.726562 17.085938 8.738281 17.144531 8.746094 17.207031 C 8.757812 17.257812 8.757812 17.257812 8.765625 17.308594 C 8.800781 17.496094 8.832031 17.6875 8.867188 17.878906 C 8.875 17.929688 8.882812 17.984375 8.890625 18.035156 C 8.914062 18.164062 8.933594 18.289062 8.953125 18.417969 C 8.960938 18.464844 8.96875 18.511719 8.980469 18.5625 C 8.984375 18.601562 8.992188 18.644531 9 18.6875 C 9.015625 18.792969 9.015625 18.792969 9.101562 18.867188 C 9.179688 18.878906 9.179688 18.878906 9.273438 18.878906 C 9.308594 18.878906 9.34375 18.878906 9.382812 18.878906 C 9.421875 18.878906 9.460938 18.878906 9.5 18.878906 C 9.539062 18.878906 9.578125 18.878906 9.621094 18.878906 C 9.703125 18.878906 9.785156 18.878906 9.871094 18.878906 C 10 18.878906 10.128906 18.878906 10.257812 18.878906 C 10.339844 18.878906 10.417969 18.878906 10.5 18.878906 C 10.558594 18.878906 10.558594 18.878906 10.617188 18.878906 C 10.671875 18.878906 10.671875 18.878906 10.726562 18.878906 C 10.757812 18.878906 10.789062 18.878906 10.820312 18.878906 C 10.90625 18.875 10.90625 18.875 10.976562 18.789062 C 11 18.710938 11 18.710938 11.011719 18.617188 C 11.019531 18.566406 11.019531 18.566406 11.03125 18.511719 C 11.035156 18.472656 11.042969 18.4375 11.046875 18.398438 C 11.0625 18.316406 11.074219 18.234375 11.089844 18.15625 C 11.109375 18.027344 11.128906 17.902344 11.152344 17.773438 C 11.171875 17.652344 11.191406 17.527344 11.210938 17.40625 C 11.21875 17.367188 11.222656 17.328125 11.230469 17.289062 C 11.269531 17.050781 11.308594 16.839844 11.503906 16.675781 C 11.691406 16.574219 11.882812 16.515625 12.085938 16.453125 C 12.480469 16.328125 12.839844 16.171875 13.203125 15.976562 C 13.257812 15.949219 13.3125 15.917969 13.367188 15.890625 C 13.40625 15.871094 13.40625 15.871094 13.445312 15.851562 C 13.621094 15.773438 13.75 15.769531 13.933594 15.828125 C 14.113281 15.894531 14.257812 15.996094 14.410156 16.109375 C 14.4375 16.128906 14.464844 16.148438 14.496094 16.167969 C 14.617188 16.257812 14.738281 16.347656 14.863281 16.4375 C 14.925781 16.484375 14.992188 16.53125 15.054688 16.578125 C 15.117188 16.625 15.179688 16.667969 15.238281 16.714844 C 15.265625 16.734375 15.292969 16.753906 15.324219 16.777344 C 15.347656 16.792969 15.371094 16.8125 15.398438 16.832031 C 15.476562 16.878906 15.53125 16.902344 15.625 16.914062 C 15.695312 16.871094 15.695312 16.871094 15.761719 16.800781 C 15.785156 16.773438 15.8125 16.75 15.839844 16.722656 C 15.867188 16.695312 15.894531 16.664062 15.921875 16.636719 C 15.949219 16.605469 15.980469 16.578125 16.007812 16.550781 C 16.097656 16.457031 16.1875 16.363281 16.28125 16.273438 C 16.339844 16.210938 16.402344 16.148438 16.464844 16.085938 C 16.613281 15.933594 16.765625 15.777344 16.914062 15.625 C 16.863281 15.488281 16.808594 15.378906 16.722656 15.261719 C 16.691406 15.214844 16.691406 15.214844 16.65625 15.167969 C 16.621094 15.117188 16.621094 15.117188 16.585938 15.066406 C 16.535156 14.996094 16.484375 14.925781 16.4375 14.855469 C 16.34375 14.726562 16.253906 14.597656 16.160156 14.46875 C 16.121094 14.414062 16.082031 14.359375 16.046875 14.304688 C 16.027344 14.28125 16.007812 14.257812 15.992188 14.234375 C 15.867188 14.054688 15.757812 13.855469 15.792969 13.628906 C 15.859375 13.402344 15.980469 13.195312 16.085938 12.988281 C 16.304688 12.554688 16.480469 12.101562 16.59375 11.628906 C 16.65625 11.488281 16.742188 11.40625 16.875 11.328125 C 16.984375 11.289062 17.09375 11.269531 17.210938 11.25 C 17.257812 11.242188 17.257812 11.242188 17.308594 11.230469 C 17.425781 11.210938 17.539062 11.191406 17.65625 11.171875 C 17.703125 11.164062 17.753906 11.15625 17.800781 11.148438 C 17.839844 11.140625 17.839844 11.140625 17.878906 11.132812 C 17.957031 11.121094 18.035156 11.109375 18.113281 11.09375 C 18.214844 11.078125 18.316406 11.0625 18.417969 11.042969 C 18.464844 11.039062 18.511719 11.03125 18.5625 11.019531 C 18.601562 11.015625 18.644531 11.007812 18.6875 11 C 18.792969 10.984375 18.792969 10.984375 18.867188 10.898438 C 18.878906 10.820312 18.878906 10.820312 18.878906 10.726562 C 18.878906 10.671875 18.878906 10.671875 18.878906 10.617188 C 18.878906 10.578125 18.878906 10.539062 18.878906 10.5 C 18.878906 10.460938 18.878906 10.421875 18.878906 10.378906 C 18.878906 10.296875 18.878906 10.214844 18.878906 10.128906 C 18.878906 10 18.878906 9.871094 18.878906 9.742188 C 18.878906 9.660156 18.878906 9.582031 18.878906 9.5 C 18.878906 9.441406 18.878906 9.441406 18.878906 9.382812 C 18.878906 9.347656 18.878906 9.3125 18.878906 9.273438 C 18.878906 9.242188 18.878906 9.210938 18.878906 9.179688 C 18.875 9.09375 18.875 9.09375 18.789062 9.023438 C 18.675781 9 18.566406 8.976562 18.453125 8.957031 C 18.402344 8.949219 18.402344 8.949219 18.351562 8.941406 C 18.242188 8.921875 18.132812 8.90625 18.023438 8.886719 C 17.917969 8.867188 17.808594 8.851562 17.703125 8.832031 C 17.636719 8.820312 17.570312 8.808594 17.503906 8.796875 C 16.824219 8.683594 16.824219 8.683594 16.679688 8.515625 C 16.617188 8.375 16.570312 8.230469 16.523438 8.085938 C 16.34375 7.566406 16.132812 7.078125 15.871094 6.597656 C 15.789062 6.414062 15.785156 6.253906 15.820312 6.054688 C 15.878906 5.921875 15.957031 5.808594 16.042969 5.691406 C 16.101562 5.613281 16.15625 5.535156 16.214844 5.457031 C 16.539062 5.003906 16.539062 5.003906 16.707031 4.785156 C 16.734375 4.75 16.761719 4.710938 16.792969 4.671875 C 16.816406 4.640625 16.839844 4.609375 16.867188 4.578125 C 16.921875 4.496094 16.921875 4.496094 16.90625 4.417969 C 16.871094 4.320312 16.828125 4.273438 16.753906 4.203125 C 16.71875 4.164062 16.71875 4.164062 16.679688 4.128906 C 16.652344 4.101562 16.625 4.074219 16.597656 4.046875 C 16.570312 4.019531 16.542969 3.992188 16.515625 3.964844 C 16.425781 3.875 16.335938 3.789062 16.246094 3.703125 C 16.1875 3.640625 16.128906 3.582031 16.066406 3.523438 C 15.921875 3.375 15.773438 3.230469 15.625 3.085938 C 15.496094 3.132812 15.386719 3.1875 15.277344 3.269531 C 15.246094 3.289062 15.21875 3.308594 15.191406 3.332031 C 15.160156 3.355469 15.128906 3.375 15.101562 3.398438 C 15.039062 3.445312 14.972656 3.488281 14.910156 3.535156 C 14.878906 3.558594 14.847656 3.582031 14.816406 3.605469 C 14.6875 3.703125 14.554688 3.796875 14.421875 3.890625 C 14.398438 3.90625 14.378906 3.921875 14.355469 3.9375 C 13.945312 4.234375 13.945312 4.234375 13.671875 4.21875 C 13.457031 4.164062 13.265625 4.054688 13.070312 3.953125 C 12.640625 3.730469 12.195312 3.578125 11.734375 3.433594 C 11.699219 3.421875 11.660156 3.410156 11.621094 3.394531 C 11.589844 3.386719 11.558594 3.378906 11.527344 3.367188 C 11.382812 3.285156 11.3125 3.164062 11.265625 3.003906 C 11.242188 2.910156 11.226562 2.816406 11.210938 2.71875 C 11.203125 2.683594 11.199219 2.648438 11.191406 2.613281 C 11.15625 2.414062 11.125 2.210938 11.09375 2.011719 C 11.085938 1.96875 11.078125 1.925781 11.070312 1.882812 C 11.058594 1.800781 11.046875 1.71875 11.035156 1.636719 C 11.027344 1.582031 11.027344 1.582031 11.015625 1.523438 C 11.011719 1.492188 11.007812 1.457031 11 1.421875 C 10.96875 1.296875 10.949219 1.230469 10.859375 1.132812 C 10.726562 1.105469 10.59375 1.109375 10.457031 1.109375 C 10.417969 1.109375 10.378906 1.109375 10.335938 1.109375 C 10.253906 1.113281 10.171875 1.113281 10.085938 1.113281 C 9.957031 1.117188 9.832031 1.117188 9.703125 1.117188 C 9.621094 1.117188 9.539062 1.117188 9.460938 1.117188 C 9.402344 1.117188 9.402344 1.117188 9.34375 1.117188 C 9.308594 1.121094 9.269531 1.121094 9.234375 1.121094 C 9.203125 1.121094 9.171875 1.121094 9.140625 1.121094 C 9.054688 1.125 9.054688 1.125 8.984375 1.210938 Z M 8.984375 1.210938 "/>
<path style=" stroke:none;fill-rule:nonzero;fill:rgb(0%,0%,0%);fill-opacity:1;" d="M 12.660156 6.546875 C 12.722656 6.605469 12.789062 6.660156 12.851562 6.71875 C 12.878906 6.738281 12.90625 6.761719 12.933594 6.78125 C 13.75 7.441406 14.222656 8.550781 14.335938 9.570312 C 14.398438 10.78125 14.101562 11.933594 13.28125 12.851562 C 13.261719 12.875 13.242188 12.902344 13.222656 12.925781 C 12.566406 13.75 11.457031 14.199219 10.441406 14.328125 C 9.253906 14.449219 8.109375 14.066406 7.1875 13.320312 C 7.160156 13.300781 7.132812 13.277344 7.105469 13.257812 C 6.300781 12.59375 5.789062 11.515625 5.671875 10.488281 C 5.589844 9.265625 5.894531 8.144531 6.679688 7.1875 C 6.703125 7.160156 6.722656 7.132812 6.746094 7.101562 C 6.933594 6.878906 7.152344 6.699219 7.382812 6.523438 C 7.414062 6.5 7.441406 6.476562 7.472656 6.453125 C 8.957031 5.339844 11.21875 5.382812 12.660156 6.546875 Z M 7.578125 7.929688 C 7.011719 8.640625 6.78125 9.457031 6.835938 10.351562 C 6.941406 11.179688 7.351562 11.925781 7.988281 12.464844 C 8.734375 13.035156 9.578125 13.25 10.503906 13.148438 C 11.320312 13.007812 12.0625 12.558594 12.558594 11.894531 C 13.074219 11.121094 13.296875 10.273438 13.125 9.351562 C 12.945312 8.550781 12.453125 7.804688 11.769531 7.355469 C 10.417969 6.507812 8.636719 6.6875 7.578125 7.929688 Z M 7.578125 7.929688 "/>
</g>
</svg>
