<svg fill="currentColor" width="16" height="16" viewBox="0 0 20 20" xmlns="http://www.w3.org/2000/svg">
  <path d="M3 6.9h7.11A4 4 0 0014 10c2.21 0 4-1.79 4-4s-1.79-4-4-4a4 4 0 00-3.89 3.1H3c-.5 0-.9.4-.9.9s.4.9.9.9zm11-3.1c1.21 0 2.2.99 2.2 2.2 0 1.21-.99 2.2-2.2 2.2-1.21 0-2.2-.99-2.2-2.2 0-1.21.99-2.2 2.2-2.2zm3 9.3H9.89A4 4 0 006 10c-2.21 0-4 1.79-4 4s1.79 4 4 4a4 4 0 003.89-3.1H17c.5 0 .9-.4.9-.9s-.4-.9-.9-.9zM6 16.2c-1.21 0-2.2-.99-2.2-2.2 0-1.21.99-2.2 2.2-2.2 1.21 0 2.2.99 2.2 2.2 0 1.21-.99 2.2-2.2 2.2z"></path>
</svg>
