<?xml version="1.0" encoding="UTF-8"?>
<svg version="1.1" xmlns="http://www.w3.org/2000/svg" width="256" height="256">
<path d="M0 0 C4.96031791 2.72107002 7.15969822 5.31939644 9.671875 10.34375 C9.99186462 10.97353256 10.31185425 11.60331512 10.64154053 12.25218201 C11.33134175 13.61547844 12.01383521 14.98249236 12.68969727 16.35275269 C13.76589544 18.53219028 14.86374924 20.69951973 15.96679688 22.86547852 C19.61429244 30.05819111 23.15882469 37.2947666 26.59967041 44.58859253 C28.16918569 47.90865946 29.76095944 51.2178505 31.3536377 54.52685547 C32.48473304 56.90539565 33.57772335 59.29916231 34.67089844 61.6953125 C35.37254635 63.16102054 36.07591037 64.62590869 36.78125 66.08984375 C37.07457214 66.76228622 37.36789429 67.4347287 37.67010498 68.12754822 C38.91135251 70.62774323 40.13029604 72.60306178 42.72735596 73.78837585 C45.14684783 74.37237458 47.52876314 74.69748383 50 75 C51.10698242 75.17138992 52.21396484 75.34277985 53.35449219 75.5193634 C56.63598228 76.0267787 59.91931581 76.50616182 63.20687103 76.97172356 C65.40233126 77.28344283 67.59691029 77.60079414 69.7913208 77.91981506 C76.02355854 78.8255135 82.25643515 79.72643632 88.49169922 80.61108398 C92.32250978 81.15500256 96.15162365 81.70972849 99.97986603 82.27142525 C101.43209066 82.48238022 102.88490977 82.68928566 104.33831024 82.89198112 C106.36876749 83.17552615 108.39678087 83.47280391 110.42480469 83.77319336 C111.57680359 83.93814804 112.72880249 84.10310272 113.91571045 84.27305603 C117.95927337 85.22609356 120.78707119 86.87072146 123.8125 89.6875 C125.62147669 93.21024409 125.90357422 96.21038274 125 100 C122.06534746 105.45006899 117.49846436 109.54324407 112.94140625 113.63671875 C104.89324107 120.95127252 97.01520929 128.43850083 89.23168945 136.03369141 C87.52352449 137.68956727 85.80388762 139.33368378 84.07348633 140.96630859 C81.54459674 143.35553705 79.0569401 145.78169278 76.57421875 148.21875 C75.40894905 149.29582214 75.40894905 149.29582214 74.22013855 150.39465332 C70.30372428 154.31594954 70.30372428 154.31594954 68.66992188 159.46292114 C68.88899305 162.38509694 69.39796418 165.13200796 70 168 C70.38246048 170.37830441 70.76198878 172.75708153 71.13916016 175.13623047 C71.48194344 177.10714549 71.82487403 179.0780406 72.17345047 181.0479393 C72.5477731 183.16648673 72.91563949 185.28606897 73.28182983 187.40603638 C74.32229828 193.42431496 75.37226062 199.4409047 76.43066406 205.45605469 C77.08137136 209.15677142 77.72328955 212.85892585 78.35981369 216.56210709 C78.60283247 217.96527947 78.84923418 219.36787047 79.09914017 220.76983261 C79.44752655 222.72515327 79.78383853 224.6826136 80.11962891 226.64013672 C80.41155624 228.30579178 80.41155624 228.30579178 80.7093811 230.00509644 C81.16180187 234.66741048 80.42425865 237.27465456 78.0625 241.3125 C75.79786805 243.75575081 74.06626022 244.56427715 70.75 244.875 C62.52576788 244.34048565 55.1595943 239.74617453 48 236 C47.28763184 235.63084473 46.57526367 235.26168945 45.84130859 234.88134766 C42.0640598 232.92082896 38.30047292 230.93556799 34.54296875 228.9375 C28.22434634 225.58151172 21.88537821 222.2651003 15.53723145 218.96536255 C14.22720557 218.28348424 12.91803149 217.59996682 11.60974121 216.9147644 C9.76402755 215.9482665 7.91557718 214.98720662 6.06640625 214.02734375 C4.99334229 213.46781006 3.92027832 212.90827637 2.81469727 212.33178711 C-1.64724419 210.07722678 -1.64724419 210.07722678 -6.35571289 210.8293457 C-7.2193042 211.27366943 -8.08289551 211.71799316 -8.97265625 212.17578125 C-9.94501221 212.66900879 -10.91736816 213.16223633 -11.91918945 213.67041016 C-12.95648193 214.2122998 -13.99377441 214.75418945 -15.0625 215.3125 C-16.13653076 215.86212402 -17.21056152 216.41174805 -18.31713867 216.97802734 C-21.55197055 218.63850241 -24.77725224 220.31621051 -28 222 C-29.32547852 222.68956787 -29.32547852 222.68956787 -30.67773438 223.39306641 C-36.13326003 226.23439589 -41.56917111 229.11181203 -47 232 C-50.45659928 233.83662518 -53.91529533 235.66923269 -57.375 237.5 C-58.56186401 238.13252686 -58.56186401 238.13252686 -59.77270508 238.77783203 C-66.94091431 242.57070812 -72.70874893 245.23689155 -81 244 C-84.125 242.25 -84.125 242.25 -86 239 C-87.0173508 229.85074342 -85.2008364 220.7597744 -83.59375 211.78515625 C-83.3461311 210.35714158 -83.09952779 208.92895047 -82.85388184 207.50059509 C-82.21139843 203.77751437 -81.55774669 200.05649328 -80.90081787 196.3359375 C-79.84704565 190.3589453 -78.80882975 184.37925116 -77.77400208 178.39895439 C-77.4125777 176.32152714 -77.04524154 174.24521084 -76.67712402 172.16896057 C-76.45689575 170.90672165 -76.23666748 169.64448273 -76.00976562 168.34399414 C-75.81435181 167.23657364 -75.61893799 166.12915314 -75.41760254 164.98817444 C-75.2797937 164.00207687 -75.14198486 163.01597931 -75 162 C-74.81305321 160.73900986 -74.81305321 160.73900986 -74.62232971 159.45254517 C-75.18684502 155.78665102 -77.46424833 153.88606181 -80.03295898 151.4152832 C-80.56779907 150.88131927 -81.10263916 150.34735535 -81.65368652 149.79721069 C-83.42304906 148.03642416 -85.20933721 146.29389971 -86.99609375 144.55078125 C-88.22796939 143.33077292 -89.45867248 142.10957958 -90.68824768 140.88725281 C-93.92730996 137.67294496 -97.18065641 134.47349677 -100.43762207 131.27734375 C-105.02944945 126.76595673 -109.60162037 122.23463551 -114.17604065 117.70561218 C-116.61270182 115.29324041 -119.05470373 112.886477 -121.50108337 110.48396301 C-122.61328711 109.38816935 -123.72547564 108.29236025 -124.83764648 107.1965332 C-125.34834183 106.69728836 -125.85903717 106.19804352 -126.38520813 105.68367004 C-130.32246214 101.79604923 -131.10731459 99.82853131 -131.5234375 94.265625 C-130.70038842 90.70317376 -128.76161898 88.28692021 -126 86 C-122.90101737 84.77352906 -119.7709061 84.33677515 -116.48046875 83.87890625 C-115.04661079 83.64911827 -115.04661079 83.64911827 -113.58378601 83.41468811 C-110.39293267 82.9133472 -107.19799088 82.45346445 -104 82 C-102.31127777 81.75331573 -102.31127777 81.75331573 -100.58843994 81.50164795 C-90.90545457 80.08770904 -81.21389276 78.73490345 -71.51635742 77.42456055 C-67.859523 76.92829783 -64.20512992 76.41654594 -60.55078125 75.90234375 C-58.87294304 75.68190651 -58.87294304 75.68190651 -57.16120911 75.45701599 C-55.61635078 75.23647301 -55.61635078 75.23647301 -54.0402832 75.01147461 C-53.13623245 74.88808212 -52.2321817 74.76468964 -51.30073547 74.63755798 C-47.54498755 73.59680075 -46.4240698 71.74916914 -44.54069519 68.42196655 C-44.03250748 67.38988068 -43.52431976 66.3577948 -43.00073242 65.29443359 C-42.41970261 64.12246429 -41.83867279 62.950495 -41.24003601 61.74301147 C-40.77982842 60.80406099 -40.77982842 60.80406099 -40.31032372 59.84614182 C-39.34381236 57.87466091 -38.36973693 55.90708451 -37.39363098 53.94033813 C-34.96850459 49.05006177 -32.55630339 44.15343791 -30.14398193 39.25683594 C-28.10757009 35.12442396 -26.06605179 30.99461058 -24.0179081 26.86800003 C-23.06584567 24.94465322 -22.121185 23.01779462 -21.17680359 21.09066772 C-10.1677966 -1.22013559 -10.1677966 -1.22013559 0 0 Z M-4 37 C-5.60805313 40.18555278 -7.21119633 43.37354926 -8.8125 46.5625 C-9.30588867 47.54452393 -9.79927734 48.52654785 -10.30761719 49.53833008 C-13.40419432 55.72902986 -16.41203369 61.95385317 -19.35327148 68.21972656 C-29.31449708 89.38537213 -29.31449708 89.38537213 -33 93 C-39.30250588 95.20964566 -45.83348809 95.958075 -52.42578125 96.875 C-54.85484396 97.22377556 -57.28387964 97.57273942 -59.71289062 97.921875 C-63.52896299 98.46459652 -67.34538646 99.0046215 -71.16235352 99.54101562 C-74.85539007 100.06186186 -78.54686358 100.59281969 -82.23828125 101.125 C-83.38718338 101.28339355 -84.53608551 101.44178711 -85.71980286 101.60498047 C-86.77817856 101.75854004 -87.83655426 101.91209961 -88.92700195 102.0703125 C-89.8607515 102.20195801 -90.79450104 102.33360352 -91.75654602 102.46923828 C-94.18704908 102.83683801 -94.18704908 102.83683801 -96 105 C-94.16994917 106.8575016 -92.33607989 108.71097232 -90.5 110.5625 C-89.9946875 111.07619141 -89.489375 111.58988281 -88.96875 112.11914062 C-86.18329903 114.92200066 -83.34329136 117.59550324 -80.33984375 120.1640625 C-75.19714433 124.61355118 -70.4205174 129.42941016 -65.62475586 134.24487305 C-64.04460356 135.83045796 -62.45908024 137.41053442 -60.87304688 138.99023438 C-59.86426194 139.99967892 -58.85578662 141.00943299 -57.84765625 142.01953125 C-56.94023682 142.92807861 -56.03281738 143.83662598 -55.09790039 144.77270508 C-51.79600272 148.27825756 -51.80024604 150.58296831 -51.85742188 155.36221313 C-52.11329234 160.09598104 -52.93889986 164.72128248 -53.75 169.38671875 C-53.92756836 170.44736038 -54.10513672 171.50800201 -54.28808594 172.6007843 C-54.851831 175.96422889 -55.42507109 179.32595049 -56 182.6875 C-56.57406477 186.0598897 -57.1459251 189.43259583 -57.71191406 192.80635071 C-58.06312032 194.8984799 -58.41902728 196.98982697 -58.78027344 199.08024597 C-59.57021782 203.77314839 -60.22601132 208.21996157 -60 213 C-49.55835161 208.1751543 -39.24814325 203.15896149 -29.0625 197.8125 C-28.08410156 197.30009766 -27.10570313 196.78769531 -26.09765625 196.25976562 C-22.08561896 194.155493 -18.07833365 192.04364227 -14.0859375 189.90234375 C-13.04695313 189.35707031 -12.00796875 188.81179687 -10.9375 188.25 C-10.10089844 187.80140625 -9.26429687 187.3528125 -8.40234375 186.890625 C-4.0478774 185.27628625 -0.87529702 185.64105667 3.40478516 187.39624023 C4.66430269 188.04214639 5.91708677 188.70129476 7.1640625 189.37109375 C7.8513443 189.72739365 8.5386261 190.08369354 9.24673462 190.45079041 C10.72931156 191.22106208 12.20903936 191.99683764 13.68615723 192.77752686 C16.02947877 194.01557452 18.3800882 195.23857639 20.73339844 196.45751953 C23.97687002 198.13846278 27.219615 199.82077523 30.4609375 201.50585938 C31.26756836 201.92504639 32.07419922 202.3442334 32.90527344 202.77612305 C34.5780775 203.6474165 36.2495914 204.52119064 37.91992188 205.3972168 C40.36736829 206.67967306 42.8198177 207.95206055 45.2734375 209.22265625 C46.02225189 209.61832291 46.77106628 210.01398956 47.54257202 210.42164612 C49.33143629 211.3424616 51.16268449 212.18011692 53 213 C53.66 212.67 54.32 212.34 55 212 C54.88724731 211.35821808 54.77449463 210.71643616 54.6583252 210.0552063 C53.48032141 203.34030275 52.31420276 196.62341051 51.15478516 189.90527344 C50.72127218 187.40247148 50.2847902 184.90018182 49.84521484 182.3984375 C49.21179547 178.79038881 48.5892809 175.18059734 47.96875 171.5703125 C47.77188599 170.46261505 47.57502197 169.3549176 47.37219238 168.21365356 C44.51713772 151.41252173 44.51713772 151.41252173 47.30552673 146.87599182 C49.07545772 144.75613942 50.99405133 142.89846373 53 141 C54.73979951 139.21892973 56.47797148 137.43626873 58.21484375 135.65234375 C59.63519053 134.22464518 61.06087545 132.80247598 62.48803711 131.3815918 C63.93524385 129.93974779 65.37702026 128.49262884 66.81835938 127.04492188 C71.52549913 122.33470741 76.29635402 117.75785754 81.35375977 113.42358398 C83.32447238 111.71941295 85.1771561 109.92331982 87 108.0625 C87.5775 107.47597656 88.155 106.88945313 88.75 106.28515625 C89.1625 105.86105469 89.575 105.43695313 90 105 C87.53563194 102.53563194 86.33647085 102.5509995 82.92700195 102.0703125 C81.86862625 101.91675293 80.81025055 101.76319336 79.71980286 101.60498047 C78.57090073 101.44658691 77.4219986 101.28819336 76.23828125 101.125 C75.05912643 100.95500488 73.87997162 100.78500977 72.66508484 100.60986328 C68.88196897 100.06535335 65.09740936 99.5318891 61.3125 99 C57.54563466 98.46692806 53.77917062 97.9314018 50.01347351 97.39013672 C47.66801405 97.05336528 45.3218503 96.72145375 42.97492981 96.39501953 C28.15929042 94.27696172 28.15929042 94.27696172 24.953125 90.74536133 C24.39109375 89.7633374 23.8290625 88.78131348 23.25 87.76953125 C22.92692871 87.21046585 22.60385742 86.65140045 22.27099609 86.07539368 C17.06701699 76.85613657 12.587537 67.22193369 8 57.6875 C7.02536707 55.67482623 6.05011115 53.66245401 5.07421875 51.65039062 C2.70895993 46.77037669 0.35138952 41.8867106 -2 37 C-2.66 37 -3.32 37 -4 37 Z " fill="#FFFFFF" transform="translate(131,6)"/>
</svg>
