<?xml version="1.0" encoding="UTF-8"?>
<svg xmlns="http://www.w3.org/2000/svg" xmlns:xlink="http://www.w3.org/1999/xlink" width="20px" height="20px" viewBox="0 0 20 20" version="1.1">
<g id="surface1">
<path style=" stroke:none;fill-rule:nonzero;fill:rgb(0%,0%,0%);fill-opacity:1;" d="M 1.75 1.480469 C 1.777344 1.480469 1.808594 1.480469 1.835938 1.480469 C 1.933594 1.480469 2.03125 1.480469 2.128906 1.480469 C 2.199219 1.480469 2.269531 1.480469 2.339844 1.480469 C 2.535156 1.480469 2.726562 1.480469 2.921875 1.480469 C 3.128906 1.480469 3.339844 1.476562 3.546875 1.476562 C 3.957031 1.476562 4.367188 1.476562 4.773438 1.476562 C 5.105469 1.476562 5.4375 1.476562 5.769531 1.476562 C 6.714844 1.476562 7.65625 1.476562 8.597656 1.476562 C 8.675781 1.476562 8.675781 1.476562 8.753906 1.476562 C 8.828125 1.476562 8.828125 1.476562 8.90625 1.476562 C 9.730469 1.476562 10.554688 1.476562 11.378906 1.476562 C 12.226562 1.476562 13.074219 1.476562 13.921875 1.476562 C 14.394531 1.476562 14.871094 1.476562 15.347656 1.476562 C 15.75 1.472656 16.15625 1.472656 16.558594 1.476562 C 16.765625 1.476562 16.972656 1.476562 17.179688 1.472656 C 17.367188 1.472656 17.558594 1.472656 17.746094 1.476562 C 17.816406 1.476562 17.882812 1.476562 17.953125 1.472656 C 18.566406 1.472656 19.128906 1.480469 19.601562 1.921875 C 19.871094 2.207031 20.003906 2.515625 20.003906 2.902344 C 20.003906 2.953125 20.003906 3.007812 20.003906 3.058594 C 20.003906 3.117188 20.003906 3.171875 20.003906 3.230469 C 20.007812 3.289062 20.007812 3.351562 20.007812 3.410156 C 20.007812 3.578125 20.007812 3.742188 20.007812 3.910156 C 20.007812 4.089844 20.007812 4.269531 20.007812 4.449219 C 20.007812 4.878906 20.007812 5.3125 20.007812 5.746094 C 20.007812 5.949219 20.007812 6.15625 20.011719 6.359375 C 20.011719 7.035156 20.011719 7.714844 20.011719 8.390625 C 20.011719 8.566406 20.011719 8.742188 20.011719 8.917969 C 20.011719 8.964844 20.011719 9.007812 20.011719 9.050781 C 20.011719 9.761719 20.011719 10.46875 20.015625 11.175781 C 20.015625 11.902344 20.015625 12.632812 20.015625 13.359375 C 20.015625 13.765625 20.015625 14.175781 20.019531 14.582031 C 20.019531 14.929688 20.019531 15.277344 20.019531 15.625 C 20.019531 15.804688 20.019531 15.980469 20.019531 16.15625 C 20.019531 16.320312 20.019531 16.484375 20.019531 16.644531 C 20.019531 16.703125 20.019531 16.761719 20.019531 16.820312 C 20.023438 17.328125 19.945312 17.707031 19.585938 18.078125 C 19.191406 18.4375 18.773438 18.523438 18.25 18.519531 C 18.222656 18.519531 18.191406 18.519531 18.164062 18.519531 C 18.066406 18.519531 17.96875 18.519531 17.871094 18.519531 C 17.800781 18.519531 17.730469 18.519531 17.660156 18.519531 C 17.464844 18.519531 17.273438 18.519531 17.078125 18.519531 C 16.871094 18.519531 16.660156 18.523438 16.453125 18.523438 C 16.042969 18.523438 15.632812 18.523438 15.226562 18.523438 C 14.894531 18.523438 14.5625 18.523438 14.230469 18.523438 C 13.285156 18.523438 12.34375 18.523438 11.402344 18.523438 C 11.324219 18.523438 11.324219 18.523438 11.246094 18.523438 C 11.195312 18.523438 11.144531 18.523438 11.09375 18.523438 C 10.269531 18.523438 9.445312 18.523438 8.621094 18.523438 C 7.773438 18.523438 6.925781 18.523438 6.078125 18.523438 C 5.605469 18.523438 5.128906 18.523438 4.652344 18.523438 C 4.25 18.527344 3.84375 18.527344 3.441406 18.523438 C 3.234375 18.523438 3.027344 18.523438 2.820312 18.527344 C 2.632812 18.527344 2.441406 18.527344 2.253906 18.523438 C 2.183594 18.523438 2.117188 18.523438 2.046875 18.527344 C 1.433594 18.527344 0.871094 18.519531 0.398438 18.078125 C 0.128906 17.792969 -0.00390625 17.484375 -0.00390625 17.097656 C -0.00390625 17.046875 -0.00390625 16.992188 -0.00390625 16.941406 C -0.00390625 16.882812 -0.00390625 16.828125 -0.00390625 16.769531 C -0.0078125 16.710938 -0.0078125 16.648438 -0.0078125 16.589844 C -0.0078125 16.421875 -0.0078125 16.257812 -0.0078125 16.089844 C -0.0078125 15.910156 -0.0078125 15.730469 -0.0078125 15.550781 C -0.0078125 15.121094 -0.0078125 14.6875 -0.0078125 14.253906 C -0.0078125 14.050781 -0.0078125 13.84375 -0.0117188 13.640625 C -0.0117188 12.964844 -0.0117188 12.285156 -0.0117188 11.609375 C -0.0117188 11.433594 -0.0117188 11.257812 -0.0117188 11.082031 C -0.0117188 11.035156 -0.0117188 10.992188 -0.0117188 10.949219 C -0.0117188 10.238281 -0.0117188 9.53125 -0.015625 8.824219 C -0.015625 8.097656 -0.015625 7.367188 -0.015625 6.640625 C -0.015625 6.234375 -0.015625 5.824219 -0.0195312 5.417969 C -0.0195312 5.070312 -0.0195312 4.722656 -0.0195312 4.375 C -0.0195312 4.195312 -0.0195312 4.019531 -0.0195312 3.84375 C -0.0195312 3.679688 -0.0195312 3.515625 -0.0195312 3.355469 C -0.0195312 3.296875 -0.0195312 3.238281 -0.0195312 3.179688 C -0.0234375 2.671875 0.0546875 2.292969 0.414062 1.921875 C 0.808594 1.5625 1.226562 1.476562 1.75 1.480469 Z M 0.742188 2.5 C 0.425781 2.992188 0.585938 3.894531 0.585938 4.335938 C 6.800781 4.335938 13.011719 4.335938 19.414062 4.335938 C 19.503906 3.355469 19.503906 3.355469 19.179688 2.421875 C 18.898438 2.148438 18.644531 2.101562 18.257812 2.105469 C 18.230469 2.105469 18.199219 2.105469 18.171875 2.105469 C 18.074219 2.105469 17.976562 2.105469 17.878906 2.105469 C 17.808594 2.105469 17.738281 2.105469 17.664062 2.105469 C 17.472656 2.101562 17.277344 2.101562 17.082031 2.101562 C 16.875 2.101562 16.664062 2.101562 16.453125 2.101562 C 15.996094 2.101562 15.539062 2.101562 15.078125 2.101562 C 14.792969 2.101562 14.507812 2.101562 14.222656 2.101562 C 13.429688 2.101562 12.636719 2.101562 11.847656 2.101562 C 11.796875 2.101562 11.746094 2.101562 11.691406 2.101562 C 11.617188 2.101562 11.617188 2.101562 11.539062 2.101562 C 11.4375 2.101562 11.332031 2.101562 11.230469 2.101562 C 11.179688 2.101562 11.128906 2.101562 11.074219 2.101562 C 10.246094 2.101562 9.417969 2.097656 8.59375 2.097656 C 7.742188 2.097656 6.894531 2.097656 6.042969 2.097656 C 5.566406 2.097656 5.089844 2.097656 4.613281 2.097656 C 4.207031 2.09375 3.800781 2.09375 3.394531 2.09375 C 3.1875 2.09375 2.980469 2.09375 2.773438 2.09375 C 2.582031 2.09375 2.390625 2.09375 2.203125 2.09375 C 2.132812 2.09375 2.066406 2.09375 1.996094 2.09375 C 1.5 2.09375 1.097656 2.109375 0.742188 2.5 Z M 0.585938 4.960938 C 0.585938 6.9375 0.582031 8.917969 0.582031 10.953125 C 0.582031 11.578125 0.578125 12.203125 0.578125 12.847656 C 0.578125 13.40625 0.578125 13.40625 0.578125 13.96875 C 0.578125 14.214844 0.578125 14.464844 0.578125 14.714844 C 0.578125 15.003906 0.578125 15.289062 0.578125 15.578125 C 0.578125 15.726562 0.578125 15.871094 0.578125 16.019531 C 0.578125 16.179688 0.578125 16.335938 0.578125 16.492188 C 0.578125 16.539062 0.574219 16.585938 0.574219 16.632812 C 0.578125 16.984375 0.589844 17.296875 0.820312 17.578125 C 1.101562 17.851562 1.355469 17.898438 1.742188 17.894531 C 1.769531 17.894531 1.796875 17.894531 1.828125 17.894531 C 1.925781 17.894531 2.023438 17.894531 2.121094 17.894531 C 2.191406 17.894531 2.261719 17.894531 2.332031 17.894531 C 2.527344 17.894531 2.71875 17.894531 2.914062 17.894531 C 3.125 17.894531 3.332031 17.898438 3.542969 17.898438 C 3.953125 17.898438 4.359375 17.898438 4.769531 17.898438 C 5.105469 17.898438 5.4375 17.898438 5.769531 17.898438 C 6.714844 17.898438 7.65625 17.898438 8.601562 17.898438 C 8.652344 17.898438 8.703125 17.898438 8.753906 17.898438 C 8.808594 17.898438 8.859375 17.898438 8.910156 17.898438 C 9.734375 17.898438 10.5625 17.898438 11.386719 17.898438 C 12.234375 17.898438 13.082031 17.898438 13.933594 17.898438 C 14.40625 17.898438 14.882812 17.898438 15.359375 17.898438 C 15.765625 17.902344 16.171875 17.902344 16.578125 17.898438 C 16.78125 17.898438 16.988281 17.898438 17.195312 17.902344 C 17.386719 17.902344 17.574219 17.902344 17.765625 17.898438 C 17.832031 17.898438 17.902344 17.898438 17.96875 17.902344 C 18.0625 17.902344 18.15625 17.902344 18.25 17.898438 C 18.277344 17.902344 18.304688 17.902344 18.332031 17.902344 C 18.621094 17.898438 18.871094 17.839844 19.101562 17.65625 C 19.4375 17.308594 19.417969 16.960938 19.417969 16.503906 C 19.417969 16.453125 19.417969 16.402344 19.417969 16.351562 C 19.417969 16.21875 19.417969 16.082031 19.417969 15.945312 C 19.417969 15.792969 19.417969 15.644531 19.417969 15.496094 C 19.417969 15.207031 19.417969 14.914062 19.417969 14.625 C 19.417969 14.289062 19.417969 13.953125 19.417969 13.617188 C 19.417969 12.730469 19.417969 11.84375 19.417969 10.960938 C 19.414062 8.980469 19.414062 7 19.414062 4.960938 C 13.199219 4.960938 6.988281 4.960938 0.585938 4.960938 Z M 0.585938 4.960938 "/>
<path style=" stroke:none;fill-rule:nonzero;fill:rgb(0%,0%,0%);fill-opacity:1;" d="M 3.074219 14.675781 C 3.125 14.675781 3.175781 14.675781 3.230469 14.675781 C 3.285156 14.675781 3.34375 14.675781 3.398438 14.675781 C 3.460938 14.675781 3.519531 14.675781 3.582031 14.675781 C 3.746094 14.675781 3.914062 14.675781 4.078125 14.675781 C 4.257812 14.675781 4.4375 14.675781 4.613281 14.675781 C 4.964844 14.675781 5.316406 14.675781 5.664062 14.675781 C 5.949219 14.675781 6.234375 14.675781 6.519531 14.675781 C 6.5625 14.675781 6.601562 14.675781 6.644531 14.675781 C 6.726562 14.675781 6.808594 14.675781 6.890625 14.675781 C 7.664062 14.675781 8.433594 14.675781 9.207031 14.675781 C 9.914062 14.675781 10.621094 14.675781 11.324219 14.675781 C 12.050781 14.671875 12.777344 14.671875 13.5 14.671875 C 13.910156 14.671875 14.316406 14.671875 14.722656 14.671875 C 15.070312 14.671875 15.417969 14.671875 15.761719 14.671875 C 15.941406 14.671875 16.117188 14.671875 16.292969 14.671875 C 16.457031 14.671875 16.617188 14.671875 16.78125 14.671875 C 16.839844 14.671875 16.898438 14.671875 16.957031 14.671875 C 17.3125 14.671875 17.609375 14.671875 17.902344 14.894531 C 18.09375 15.085938 18.140625 15.253906 18.140625 15.523438 C 18.140625 15.550781 18.140625 15.578125 18.140625 15.605469 C 18.140625 15.660156 18.140625 15.714844 18.140625 15.773438 C 18.140625 15.859375 18.140625 15.945312 18.140625 16.03125 C 18.140625 16.085938 18.140625 16.140625 18.140625 16.195312 C 18.140625 16.246094 18.140625 16.296875 18.140625 16.347656 C 18.113281 16.597656 18 16.753906 17.8125 16.914062 C 17.640625 17.015625 17.515625 17.046875 17.316406 17.046875 C 17.292969 17.046875 17.265625 17.046875 17.242188 17.046875 C 17.15625 17.046875 17.070312 17.046875 16.988281 17.046875 C 16.925781 17.046875 16.863281 17.046875 16.804688 17.046875 C 16.632812 17.046875 16.464844 17.046875 16.296875 17.046875 C 16.117188 17.046875 15.933594 17.046875 15.75 17.046875 C 15.394531 17.046875 15.039062 17.046875 14.683594 17.046875 C 14.394531 17.046875 14.105469 17.046875 13.816406 17.046875 C 13.753906 17.046875 13.753906 17.046875 13.691406 17.046875 C 13.605469 17.046875 13.523438 17.046875 13.4375 17.046875 C 12.65625 17.050781 11.871094 17.050781 11.085938 17.046875 C 10.367188 17.046875 9.648438 17.046875 8.929688 17.050781 C 8.195312 17.050781 7.457031 17.050781 6.71875 17.050781 C 6.304688 17.050781 5.890625 17.050781 5.476562 17.050781 C 5.125 17.050781 4.773438 17.050781 4.421875 17.050781 C 4.242188 17.050781 4.0625 17.050781 3.882812 17.050781 C 3.714844 17.050781 3.550781 17.050781 3.386719 17.050781 C 3.328125 17.050781 3.269531 17.050781 3.207031 17.050781 C 2.855469 17.054688 2.582031 17.046875 2.300781 16.804688 C 2.113281 16.542969 2.113281 16.273438 2.121094 15.960938 C 2.125 15.875 2.125 15.785156 2.125 15.699219 C 2.125 15.339844 2.148438 15.117188 2.414062 14.851562 C 2.621094 14.707031 2.824219 14.679688 3.074219 14.675781 Z M 2.773438 15.390625 C 2.757812 15.492188 2.757812 15.492188 2.761719 15.613281 C 2.761719 15.65625 2.761719 15.699219 2.761719 15.746094 C 2.765625 15.789062 2.765625 15.835938 2.765625 15.882812 C 2.765625 15.929688 2.765625 15.976562 2.769531 16.023438 C 2.769531 16.136719 2.769531 16.253906 2.773438 16.367188 C 2.882812 16.421875 2.96875 16.410156 3.089844 16.410156 C 3.164062 16.410156 3.164062 16.410156 3.242188 16.410156 C 3.300781 16.410156 3.355469 16.410156 3.414062 16.410156 C 3.472656 16.410156 3.535156 16.410156 3.59375 16.410156 C 3.757812 16.410156 3.925781 16.410156 4.089844 16.410156 C 4.269531 16.410156 4.449219 16.414062 4.628906 16.414062 C 4.976562 16.414062 5.328125 16.414062 5.675781 16.414062 C 5.960938 16.414062 6.246094 16.414062 6.53125 16.414062 C 7.335938 16.414062 8.140625 16.414062 8.945312 16.414062 C 9.011719 16.414062 9.011719 16.414062 9.078125 16.414062 C 9.144531 16.414062 9.144531 16.414062 9.210938 16.414062 C 9.914062 16.414062 10.621094 16.414062 11.328125 16.414062 C 12.050781 16.414062 12.773438 16.414062 13.496094 16.414062 C 13.90625 16.414062 14.3125 16.414062 14.71875 16.414062 C 15.0625 16.417969 15.410156 16.417969 15.757812 16.414062 C 15.933594 16.414062 16.109375 16.414062 16.285156 16.417969 C 16.449219 16.417969 16.609375 16.417969 16.769531 16.414062 C 16.828125 16.414062 16.886719 16.414062 16.945312 16.417969 C 17.027344 16.417969 17.105469 16.417969 17.183594 16.414062 C 17.230469 16.414062 17.273438 16.414062 17.320312 16.414062 C 17.429688 16.417969 17.429688 16.417969 17.5 16.328125 C 17.519531 16.171875 17.511719 16.015625 17.511719 15.859375 C 17.511719 15.816406 17.511719 15.773438 17.515625 15.726562 C 17.515625 15.683594 17.515625 15.644531 17.515625 15.601562 C 17.515625 15.5625 17.515625 15.523438 17.515625 15.484375 C 17.507812 15.453125 17.503906 15.421875 17.5 15.390625 C 17.363281 15.296875 17.304688 15.300781 17.140625 15.300781 C 17.089844 15.300781 17.042969 15.300781 16.988281 15.300781 C 16.933594 15.300781 16.875 15.300781 16.820312 15.300781 C 16.757812 15.300781 16.699219 15.300781 16.640625 15.300781 C 16.476562 15.300781 16.308594 15.300781 16.144531 15.300781 C 15.96875 15.300781 15.789062 15.300781 15.613281 15.300781 C 15.265625 15.300781 14.917969 15.300781 14.570312 15.300781 C 14.285156 15.300781 14.003906 15.300781 13.722656 15.300781 C 13.660156 15.300781 13.660156 15.300781 13.601562 15.300781 C 13.519531 15.300781 13.4375 15.300781 13.355469 15.300781 C 12.589844 15.300781 11.824219 15.300781 11.058594 15.300781 C 10.398438 15.304688 9.742188 15.300781 9.085938 15.300781 C 8.320312 15.300781 7.558594 15.300781 6.796875 15.300781 C 6.714844 15.300781 6.632812 15.300781 6.550781 15.300781 C 6.492188 15.300781 6.492188 15.300781 6.429688 15.300781 C 6.148438 15.300781 5.867188 15.300781 5.582031 15.300781 C 5.238281 15.300781 4.894531 15.300781 4.550781 15.300781 C 4.375 15.300781 4.199219 15.300781 4.023438 15.300781 C 3.863281 15.300781 3.703125 15.300781 3.542969 15.300781 C 3.484375 15.300781 3.425781 15.300781 3.367188 15.300781 C 3.289062 15.300781 3.210938 15.300781 3.132812 15.300781 C 3.066406 15.300781 3.066406 15.300781 2.996094 15.300781 C 2.882812 15.304688 2.882812 15.304688 2.773438 15.390625 Z M 2.773438 15.390625 "/>
<path style=" stroke:none;fill-rule:nonzero;fill:rgb(0%,0%,0%);fill-opacity:1;" d="M 3.710938 5.882812 C 3.769531 5.882812 3.832031 5.882812 3.894531 5.882812 C 4.0625 5.882812 4.230469 5.882812 4.398438 5.882812 C 4.574219 5.882812 4.753906 5.882812 4.929688 5.882812 C 5.222656 5.882812 5.519531 5.882812 5.816406 5.882812 C 6.15625 5.882812 6.5 5.882812 6.839844 5.882812 C 7.136719 5.882812 7.429688 5.882812 7.722656 5.882812 C 7.898438 5.882812 8.074219 5.882812 8.25 5.882812 C 8.414062 5.882812 8.578125 5.882812 8.742188 5.882812 C 8.804688 5.882812 8.863281 5.882812 8.921875 5.882812 C 9.371094 5.882812 9.761719 5.90625 10.101562 6.230469 C 10.414062 6.566406 10.40625 6.925781 10.40625 7.363281 C 10.40625 7.421875 10.40625 7.484375 10.40625 7.542969 C 10.40625 7.710938 10.40625 7.875 10.40625 8.039062 C 10.40625 8.179688 10.40625 8.316406 10.40625 8.453125 C 10.410156 8.78125 10.410156 9.105469 10.40625 9.433594 C 10.40625 9.769531 10.40625 10.105469 10.410156 10.441406 C 10.410156 10.726562 10.410156 11.015625 10.410156 11.304688 C 10.410156 11.476562 10.410156 11.652344 10.410156 11.824219 C 10.410156 11.984375 10.410156 12.148438 10.410156 12.308594 C 10.410156 12.367188 10.410156 12.425781 10.410156 12.488281 C 10.414062 12.941406 10.351562 13.265625 10.035156 13.605469 C 9.789062 13.824219 9.515625 13.871094 9.191406 13.871094 C 9.164062 13.871094 9.140625 13.871094 9.113281 13.871094 C 9.027344 13.875 8.9375 13.875 8.851562 13.875 C 8.789062 13.875 8.726562 13.875 8.667969 13.875 C 8.496094 13.875 8.328125 13.875 8.160156 13.875 C 8.054688 13.875 7.949219 13.875 7.84375 13.875 C 7.515625 13.875 7.183594 13.875 6.851562 13.875 C 6.472656 13.875 6.09375 13.878906 5.710938 13.878906 C 5.417969 13.878906 5.121094 13.878906 4.828125 13.878906 C 4.652344 13.878906 4.476562 13.878906 4.300781 13.878906 C 4.136719 13.882812 3.96875 13.882812 3.804688 13.882812 C 3.742188 13.882812 3.683594 13.882812 3.621094 13.882812 C 3.183594 13.882812 2.757812 13.871094 2.421875 13.554688 C 2.214844 13.320312 2.140625 13.09375 2.136719 12.78125 C 2.136719 12.753906 2.136719 12.730469 2.136719 12.703125 C 2.136719 12.617188 2.136719 12.53125 2.136719 12.445312 C 2.136719 12.382812 2.136719 12.320312 2.136719 12.257812 C 2.136719 12.09375 2.136719 11.925781 2.136719 11.757812 C 2.136719 11.652344 2.136719 11.546875 2.136719 11.441406 C 2.132812 11.078125 2.132812 10.710938 2.132812 10.34375 C 2.132812 10.003906 2.132812 9.664062 2.132812 9.324219 C 2.132812 9.03125 2.128906 8.738281 2.128906 8.445312 C 2.128906 8.269531 2.128906 8.09375 2.128906 7.921875 C 2.128906 7.757812 2.128906 7.59375 2.128906 7.425781 C 2.128906 7.367188 2.128906 7.308594 2.128906 7.246094 C 2.125 6.867188 2.140625 6.554688 2.398438 6.257812 C 2.433594 6.230469 2.464844 6.199219 2.5 6.171875 C 2.527344 6.144531 2.554688 6.117188 2.585938 6.089844 C 2.925781 5.863281 3.316406 5.882812 3.710938 5.882812 Z M 2.816406 6.753906 C 2.757812 6.867188 2.757812 6.953125 2.757812 7.085938 C 2.757812 7.136719 2.757812 7.1875 2.757812 7.238281 C 2.757812 7.296875 2.757812 7.351562 2.757812 7.410156 C 2.757812 7.46875 2.757812 7.527344 2.757812 7.589844 C 2.753906 7.75 2.753906 7.914062 2.753906 8.074219 C 2.753906 8.210938 2.753906 8.34375 2.753906 8.480469 C 2.753906 8.800781 2.753906 9.117188 2.753906 9.4375 C 2.753906 9.769531 2.753906 10.097656 2.75 10.425781 C 2.75 10.710938 2.75 10.992188 2.75 11.273438 C 2.75 11.445312 2.75 11.613281 2.75 11.78125 C 2.75 11.941406 2.75 12.097656 2.75 12.257812 C 2.75 12.316406 2.75 12.375 2.75 12.433594 C 2.730469 12.773438 2.730469 12.773438 2.863281 13.078125 C 3.039062 13.222656 3.148438 13.253906 3.378906 13.253906 C 3.417969 13.253906 3.417969 13.253906 3.457031 13.253906 C 3.542969 13.253906 3.628906 13.253906 3.710938 13.253906 C 3.773438 13.253906 3.835938 13.253906 3.894531 13.253906 C 4.0625 13.253906 4.230469 13.253906 4.394531 13.253906 C 4.535156 13.253906 4.671875 13.253906 4.8125 13.253906 C 5.140625 13.253906 5.464844 13.253906 5.792969 13.253906 C 6.132812 13.253906 6.46875 13.253906 6.808594 13.253906 C 7.097656 13.257812 7.386719 13.257812 7.679688 13.257812 C 7.851562 13.257812 8.023438 13.257812 8.199219 13.257812 C 8.359375 13.257812 8.523438 13.257812 8.6875 13.257812 C 8.746094 13.257812 8.804688 13.257812 8.867188 13.257812 C 8.945312 13.257812 9.027344 13.257812 9.109375 13.257812 C 9.179688 13.257812 9.179688 13.257812 9.25 13.257812 C 9.453125 13.234375 9.570312 13.171875 9.699219 13.015625 C 9.773438 12.875 9.785156 12.792969 9.785156 12.636719 C 9.785156 12.585938 9.785156 12.535156 9.785156 12.480469 C 9.785156 12.425781 9.785156 12.371094 9.785156 12.316406 C 9.785156 12.257812 9.785156 12.199219 9.785156 12.140625 C 9.789062 11.980469 9.785156 11.820312 9.785156 11.660156 C 9.785156 11.492188 9.785156 11.324219 9.785156 11.15625 C 9.789062 10.878906 9.785156 10.597656 9.785156 10.316406 C 9.785156 9.992188 9.785156 9.667969 9.785156 9.34375 C 9.785156 9.0625 9.785156 8.785156 9.785156 8.507812 C 9.785156 8.339844 9.785156 8.171875 9.785156 8.007812 C 9.789062 7.851562 9.785156 7.695312 9.785156 7.539062 C 9.785156 7.480469 9.785156 7.421875 9.785156 7.367188 C 9.785156 7.285156 9.785156 7.207031 9.785156 7.128906 C 9.785156 7.085938 9.785156 7.042969 9.785156 6.996094 C 9.761719 6.839844 9.710938 6.761719 9.609375 6.640625 C 9.441406 6.53125 9.308594 6.507812 9.109375 6.507812 C 9.074219 6.507812 9.074219 6.507812 9.035156 6.507812 C 8.949219 6.507812 8.863281 6.507812 8.777344 6.507812 C 8.71875 6.507812 8.65625 6.507812 8.59375 6.507812 C 8.429688 6.507812 8.261719 6.507812 8.097656 6.507812 C 7.957031 6.507812 7.820312 6.507812 7.679688 6.507812 C 7.355469 6.503906 7.027344 6.503906 6.699219 6.507812 C 6.363281 6.507812 6.027344 6.507812 5.6875 6.503906 C 5.398438 6.503906 5.109375 6.503906 4.820312 6.503906 C 4.644531 6.503906 4.472656 6.503906 4.300781 6.503906 C 4.136719 6.503906 3.976562 6.503906 3.8125 6.503906 C 3.753906 6.503906 3.691406 6.503906 3.632812 6.503906 C 3.550781 6.503906 3.46875 6.503906 3.390625 6.503906 C 3.320312 6.503906 3.320312 6.503906 3.25 6.503906 C 3.0625 6.53125 2.949219 6.621094 2.816406 6.753906 Z M 2.816406 6.753906 "/>
<path style=" stroke:none;fill-rule:nonzero;fill:rgb(0%,0%,0%);fill-opacity:1;" d="M 13.425781 10.378906 C 13.46875 10.378906 13.511719 10.378906 13.554688 10.378906 C 13.691406 10.378906 13.828125 10.378906 13.96875 10.378906 C 14.0625 10.378906 14.160156 10.378906 14.253906 10.375 C 14.457031 10.375 14.65625 10.375 14.859375 10.375 C 15.117188 10.375 15.375 10.375 15.632812 10.375 C 15.828125 10.371094 16.027344 10.371094 16.226562 10.371094 C 16.320312 10.371094 16.414062 10.371094 16.511719 10.371094 C 16.644531 10.371094 16.777344 10.371094 16.910156 10.371094 C 16.949219 10.371094 16.988281 10.371094 17.027344 10.371094 C 17.359375 10.375 17.652344 10.464844 17.890625 10.703125 C 18.046875 10.917969 18.128906 11.089844 18.132812 11.359375 C 18.132812 11.394531 18.132812 11.433594 18.132812 11.472656 C 18.136719 11.640625 18.136719 11.808594 18.140625 11.980469 C 18.140625 12.070312 18.140625 12.15625 18.140625 12.246094 C 18.144531 12.375 18.144531 12.503906 18.144531 12.632812 C 18.144531 12.675781 18.148438 12.714844 18.148438 12.753906 C 18.148438 13.066406 18.066406 13.324219 17.855469 13.5625 C 17.570312 13.839844 17.234375 13.886719 16.847656 13.882812 C 16.808594 13.882812 16.769531 13.882812 16.726562 13.882812 C 16.59375 13.882812 16.464844 13.882812 16.332031 13.882812 C 16.238281 13.882812 16.148438 13.882812 16.054688 13.882812 C 15.863281 13.886719 15.667969 13.886719 15.476562 13.882812 C 15.230469 13.882812 14.984375 13.886719 14.738281 13.886719 C 14.546875 13.886719 14.355469 13.886719 14.167969 13.886719 C 14.078125 13.886719 13.984375 13.886719 13.894531 13.886719 C 13.765625 13.886719 13.640625 13.886719 13.511719 13.886719 C 13.476562 13.886719 13.4375 13.886719 13.402344 13.886719 C 13.070312 13.882812 12.753906 13.8125 12.503906 13.585938 C 12.25 13.304688 12.203125 13.007812 12.203125 12.636719 C 12.203125 12.597656 12.203125 12.554688 12.203125 12.511719 C 12.203125 12.421875 12.203125 12.335938 12.203125 12.246094 C 12.203125 12.113281 12.203125 11.976562 12.203125 11.84375 C 12.203125 11.757812 12.203125 11.671875 12.203125 11.585938 C 12.203125 11.546875 12.199219 11.507812 12.199219 11.464844 C 12.203125 11.144531 12.289062 10.886719 12.507812 10.648438 C 12.550781 10.617188 12.550781 10.617188 12.59375 10.585938 C 12.625 10.566406 12.652344 10.542969 12.679688 10.523438 C 12.925781 10.382812 13.152344 10.378906 13.425781 10.378906 Z M 12.929688 11.132812 C 12.847656 11.253906 12.839844 11.28125 12.839844 11.417969 C 12.839844 11.453125 12.839844 11.484375 12.839844 11.519531 C 12.839844 11.558594 12.839844 11.59375 12.839844 11.628906 C 12.839844 11.667969 12.839844 11.707031 12.835938 11.746094 C 12.835938 11.824219 12.835938 11.902344 12.835938 11.984375 C 12.835938 12.105469 12.835938 12.226562 12.835938 12.347656 C 12.832031 12.421875 12.832031 12.5 12.832031 12.578125 C 12.832031 12.613281 12.832031 12.648438 12.832031 12.6875 C 12.832031 12.851562 12.835938 12.945312 12.921875 13.085938 C 13.054688 13.203125 13.15625 13.25 13.335938 13.253906 C 13.382812 13.253906 13.382812 13.253906 13.4375 13.253906 C 13.472656 13.253906 13.507812 13.253906 13.546875 13.253906 C 13.585938 13.253906 13.625 13.253906 13.664062 13.253906 C 13.792969 13.253906 13.921875 13.253906 14.050781 13.253906 C 14.140625 13.253906 14.230469 13.253906 14.320312 13.257812 C 14.507812 13.257812 14.695312 13.257812 14.882812 13.257812 C 15.121094 13.257812 15.363281 13.257812 15.601562 13.257812 C 15.789062 13.261719 15.972656 13.261719 16.15625 13.261719 C 16.246094 13.261719 16.332031 13.261719 16.421875 13.261719 C 16.546875 13.261719 16.671875 13.261719 16.792969 13.261719 C 16.832031 13.261719 16.867188 13.261719 16.90625 13.261719 C 17.121094 13.261719 17.25 13.234375 17.421875 13.085938 C 17.503906 12.964844 17.511719 12.941406 17.511719 12.804688 C 17.511719 12.753906 17.511719 12.753906 17.511719 12.703125 C 17.511719 12.667969 17.511719 12.632812 17.511719 12.59375 C 17.511719 12.558594 17.511719 12.523438 17.511719 12.484375 C 17.511719 12.40625 17.511719 12.328125 17.511719 12.25 C 17.511719 12.132812 17.511719 12.011719 17.511719 11.894531 C 17.511719 11.820312 17.511719 11.742188 17.511719 11.667969 C 17.511719 11.632812 17.511719 11.597656 17.511719 11.558594 C 17.511719 11.527344 17.511719 11.492188 17.511719 11.460938 C 17.511719 11.429688 17.511719 11.402344 17.511719 11.371094 C 17.492188 11.230469 17.449219 11.15625 17.34375 11.066406 C 17.171875 10.992188 17.015625 11 16.832031 11 C 16.769531 11 16.769531 11 16.710938 11 C 16.578125 11 16.449219 11 16.316406 11 C 16.226562 11 16.132812 11 16.042969 11 C 15.851562 11 15.660156 11 15.46875 11 C 15.226562 11 14.980469 11 14.734375 11 C 14.546875 11 14.359375 11 14.171875 11 C 14.078125 11 13.988281 11 13.898438 11 C 13.773438 11 13.648438 11 13.519531 11 C 13.464844 11 13.464844 11 13.40625 11 C 13.21875 11 13.082031 11.003906 12.929688 11.132812 Z M 12.929688 11.132812 "/>
<path style=" stroke:none;fill-rule:nonzero;fill:rgb(0%,0%,0%);fill-opacity:1;" d="M 7.226562 8.261719 C 7.273438 8.261719 7.320312 8.261719 7.363281 8.261719 C 7.410156 8.261719 7.460938 8.261719 7.507812 8.265625 C 7.554688 8.265625 7.601562 8.261719 7.648438 8.261719 C 8.074219 8.265625 8.433594 8.332031 8.75 8.632812 C 9.125 9.035156 9.195312 9.503906 9.1875 10.039062 C 9.171875 10.503906 8.976562 10.902344 8.640625 11.222656 C 8.300781 11.492188 7.914062 11.492188 7.5 11.5 C 7.429688 11.5 7.429688 11.5 7.359375 11.503906 C 7.292969 11.503906 7.292969 11.503906 7.226562 11.503906 C 7.1875 11.503906 7.144531 11.507812 7.105469 11.507812 C 6.949219 11.476562 6.894531 11.410156 6.796875 11.289062 C 6.773438 11.160156 6.773438 11.160156 6.773438 11.007812 C 6.769531 10.980469 6.769531 10.953125 6.769531 10.925781 C 6.769531 10.832031 6.769531 10.742188 6.769531 10.652344 C 6.769531 10.589844 6.769531 10.523438 6.769531 10.460938 C 6.769531 10.328125 6.769531 10.195312 6.769531 10.066406 C 6.773438 9.894531 6.773438 9.726562 6.769531 9.554688 C 6.769531 9.425781 6.769531 9.292969 6.769531 9.164062 C 6.769531 9.101562 6.769531 9.039062 6.769531 8.976562 C 6.769531 8.890625 6.769531 8.800781 6.773438 8.714844 C 6.773438 8.664062 6.773438 8.613281 6.773438 8.5625 C 6.796875 8.4375 6.796875 8.4375 6.890625 8.34375 C 7.011719 8.269531 7.085938 8.261719 7.226562 8.261719 Z M 7.421875 8.90625 C 7.421875 9.550781 7.421875 10.195312 7.421875 10.859375 C 7.902344 10.890625 7.902344 10.890625 8.273438 10.683594 C 8.511719 10.40625 8.578125 10.128906 8.566406 9.765625 C 8.539062 9.46875 8.460938 9.230469 8.242188 9.023438 C 7.964844 8.847656 7.785156 8.90625 7.421875 8.90625 Z M 7.421875 8.90625 "/>
<path style=" stroke:none;fill-rule:nonzero;fill:rgb(0%,0%,0%);fill-opacity:1;" d="M 4.84375 8.242188 C 5.050781 8.363281 5.105469 8.523438 5.179688 8.738281 C 5.199219 8.785156 5.199219 8.785156 5.21875 8.839844 C 5.261719 8.945312 5.300781 9.054688 5.339844 9.164062 C 5.367188 9.238281 5.394531 9.3125 5.421875 9.390625 C 5.464844 9.5 5.503906 9.613281 5.546875 9.722656 C 5.625 9.9375 5.707031 10.152344 5.792969 10.363281 C 5.820312 10.433594 5.820312 10.433594 5.847656 10.503906 C 5.878906 10.585938 5.914062 10.671875 5.949219 10.753906 C 6.027344 10.953125 6.082031 11.113281 6.054688 11.328125 C 5.960938 11.460938 5.902344 11.515625 5.742188 11.546875 C 5.578125 11.511719 5.53125 11.464844 5.429688 11.328125 C 5.378906 11.1875 5.328125 11.042969 5.273438 10.898438 C 4.695312 10.878906 4.695312 10.878906 4.101562 10.859375 C 4.089844 10.9375 4.074219 11.015625 4.0625 11.09375 C 4.03125 11.191406 4.03125 11.191406 3.992188 11.28125 C 3.980469 11.308594 3.96875 11.339844 3.953125 11.367188 C 3.894531 11.460938 3.851562 11.484375 3.75 11.523438 C 3.609375 11.539062 3.542969 11.539062 3.421875 11.464844 C 3.332031 11.328125 3.339844 11.210938 3.359375 11.054688 C 3.40625 10.886719 3.46875 10.726562 3.53125 10.5625 C 3.558594 10.492188 3.558594 10.492188 3.585938 10.417969 C 3.632812 10.296875 3.679688 10.171875 3.726562 10.046875 C 3.765625 9.945312 3.804688 9.84375 3.84375 9.746094 C 4.035156 9.234375 4.035156 9.234375 4.132812 8.992188 C 4.164062 8.90625 4.195312 8.820312 4.230469 8.738281 C 4.246094 8.695312 4.261719 8.652344 4.277344 8.609375 C 4.292969 8.574219 4.304688 8.535156 4.320312 8.5 C 4.441406 8.273438 4.59375 8.207031 4.84375 8.242188 Z M 4.6875 9.335938 C 4.636719 9.472656 4.582031 9.605469 4.53125 9.742188 C 4.507812 9.800781 4.507812 9.800781 4.484375 9.859375 C 4.472656 9.894531 4.457031 9.929688 4.445312 9.96875 C 4.421875 10.019531 4.421875 10.019531 4.402344 10.070312 C 4.371094 10.152344 4.371094 10.152344 4.375 10.234375 C 4.59375 10.234375 4.8125 10.234375 5.039062 10.234375 C 4.996094 10.105469 4.953125 9.980469 4.90625 9.851562 C 4.886719 9.796875 4.886719 9.796875 4.871094 9.742188 C 4.851562 9.6875 4.851562 9.6875 4.832031 9.636719 C 4.820312 9.601562 4.8125 9.570312 4.800781 9.539062 C 4.765625 9.445312 4.765625 9.445312 4.6875 9.335938 Z M 4.6875 9.335938 "/>
<path style=" stroke:none;fill-rule:nonzero;fill:rgb(0%,0%,0%);fill-opacity:1;" d="M 12.652344 5.878906 C 12.699219 5.878906 12.746094 5.878906 12.792969 5.878906 C 12.84375 5.878906 12.894531 5.878906 12.945312 5.878906 C 13 5.878906 13.054688 5.878906 13.109375 5.878906 C 13.253906 5.875 13.402344 5.878906 13.546875 5.878906 C 13.699219 5.878906 13.855469 5.878906 14.007812 5.878906 C 14.265625 5.875 14.523438 5.878906 14.777344 5.878906 C 15.078125 5.878906 15.375 5.878906 15.671875 5.878906 C 15.925781 5.878906 16.183594 5.878906 16.4375 5.878906 C 16.589844 5.878906 16.742188 5.878906 16.894531 5.878906 C 17.039062 5.875 17.183594 5.878906 17.324219 5.878906 C 17.402344 5.878906 17.480469 5.878906 17.558594 5.878906 C 17.605469 5.878906 17.652344 5.878906 17.699219 5.878906 C 17.738281 5.878906 17.777344 5.878906 17.820312 5.878906 C 17.957031 5.902344 18.023438 5.957031 18.125 6.054688 C 18.148438 6.132812 18.148438 6.132812 18.148438 6.210938 C 18.148438 6.238281 18.148438 6.261719 18.148438 6.289062 C 18.113281 6.402344 18.058594 6.449219 17.96875 6.523438 C 17.863281 6.542969 17.863281 6.542969 17.738281 6.542969 C 17.691406 6.542969 17.644531 6.542969 17.597656 6.542969 C 17.546875 6.542969 17.492188 6.542969 17.441406 6.542969 C 17.386719 6.542969 17.332031 6.542969 17.277344 6.542969 C 17.128906 6.546875 16.980469 6.542969 16.832031 6.542969 C 16.675781 6.542969 16.519531 6.542969 16.363281 6.542969 C 16.101562 6.546875 15.839844 6.542969 15.578125 6.542969 C 15.277344 6.542969 14.972656 6.542969 14.671875 6.542969 C 14.414062 6.542969 14.152344 6.542969 13.894531 6.542969 C 13.738281 6.542969 13.585938 6.542969 13.429688 6.542969 C 13.285156 6.546875 13.136719 6.542969 12.992188 6.542969 C 12.914062 6.542969 12.835938 6.542969 12.753906 6.542969 C 12.683594 6.542969 12.683594 6.542969 12.613281 6.542969 C 12.570312 6.542969 12.53125 6.542969 12.488281 6.542969 C 12.355469 6.519531 12.308594 6.472656 12.226562 6.367188 C 12.203125 6.289062 12.203125 6.289062 12.203125 6.210938 C 12.203125 6.183594 12.203125 6.160156 12.203125 6.132812 C 12.269531 5.925781 12.457031 5.878906 12.652344 5.878906 Z M 12.652344 5.878906 "/>
<path style=" stroke:none;fill-rule:nonzero;fill:rgb(0%,0%,0%);fill-opacity:1;" d="M 12.613281 7.402344 C 12.660156 7.402344 12.707031 7.402344 12.753906 7.402344 C 12.804688 7.402344 12.859375 7.402344 12.910156 7.402344 C 12.964844 7.402344 13.019531 7.402344 13.074219 7.402344 C 13.222656 7.398438 13.371094 7.402344 13.519531 7.402344 C 13.675781 7.402344 13.832031 7.402344 13.988281 7.402344 C 14.25 7.398438 14.511719 7.402344 14.773438 7.402344 C 15.074219 7.402344 15.378906 7.402344 15.679688 7.402344 C 15.9375 7.402344 16.199219 7.402344 16.457031 7.402344 C 16.613281 7.402344 16.765625 7.402344 16.921875 7.402344 C 17.066406 7.398438 17.214844 7.402344 17.359375 7.402344 C 17.4375 7.402344 17.515625 7.402344 17.597656 7.402344 C 17.667969 7.402344 17.667969 7.402344 17.738281 7.402344 C 17.78125 7.402344 17.820312 7.402344 17.863281 7.402344 C 17.996094 7.425781 18.042969 7.472656 18.125 7.578125 C 18.148438 7.65625 18.148438 7.65625 18.148438 7.734375 C 18.148438 7.761719 18.148438 7.785156 18.148438 7.8125 C 18.109375 7.933594 18.035156 7.976562 17.929688 8.046875 C 17.820312 8.066406 17.820312 8.066406 17.699219 8.066406 C 17.652344 8.066406 17.605469 8.066406 17.558594 8.066406 C 17.507812 8.066406 17.457031 8.066406 17.40625 8.066406 C 17.351562 8.066406 17.296875 8.066406 17.242188 8.066406 C 17.097656 8.070312 16.949219 8.066406 16.804688 8.066406 C 16.652344 8.066406 16.496094 8.066406 16.34375 8.066406 C 16.085938 8.070312 15.828125 8.066406 15.574219 8.066406 C 15.273438 8.066406 14.976562 8.066406 14.679688 8.066406 C 14.425781 8.066406 14.167969 8.066406 13.914062 8.066406 C 13.761719 8.066406 13.609375 8.066406 13.457031 8.066406 C 13.3125 8.070312 13.167969 8.066406 13.027344 8.066406 C 12.949219 8.066406 12.871094 8.066406 12.792969 8.066406 C 12.746094 8.066406 12.699219 8.066406 12.652344 8.066406 C 12.613281 8.066406 12.574219 8.066406 12.53125 8.066406 C 12.394531 8.042969 12.328125 7.988281 12.226562 7.890625 C 12.203125 7.8125 12.203125 7.8125 12.203125 7.734375 C 12.203125 7.707031 12.203125 7.683594 12.203125 7.65625 C 12.265625 7.445312 12.410156 7.402344 12.613281 7.402344 Z M 12.613281 7.402344 "/>
<path style=" stroke:none;fill-rule:nonzero;fill:rgb(0%,0%,0%);fill-opacity:1;" d="M 12.71875 8.902344 C 12.765625 8.902344 12.8125 8.902344 12.855469 8.902344 C 12.90625 8.902344 12.957031 8.902344 13.007812 8.902344 C 13.058594 8.902344 13.109375 8.898438 13.164062 8.898438 C 13.304688 8.898438 13.449219 8.898438 13.589844 8.898438 C 13.679688 8.898438 13.769531 8.898438 13.855469 8.898438 C 14.167969 8.898438 14.476562 8.898438 14.789062 8.898438 C 15.078125 8.898438 15.367188 8.898438 15.65625 8.898438 C 15.902344 8.898438 16.152344 8.898438 16.398438 8.898438 C 16.546875 8.898438 16.695312 8.898438 16.84375 8.898438 C 16.984375 8.894531 17.125 8.894531 17.261719 8.898438 C 17.339844 8.898438 17.414062 8.894531 17.488281 8.894531 C 17.558594 8.894531 17.558594 8.894531 17.625 8.898438 C 17.664062 8.898438 17.703125 8.898438 17.746094 8.898438 C 17.859375 8.90625 17.941406 8.929688 18.046875 8.984375 C 18.144531 9.128906 18.144531 9.203125 18.125 9.375 C 18.042969 9.484375 17.996094 9.527344 17.863281 9.550781 C 17.800781 9.550781 17.800781 9.550781 17.738281 9.550781 C 17.691406 9.550781 17.644531 9.550781 17.597656 9.550781 C 17.546875 9.550781 17.492188 9.550781 17.441406 9.550781 C 17.386719 9.550781 17.332031 9.550781 17.277344 9.550781 C 17.128906 9.554688 16.980469 9.550781 16.832031 9.550781 C 16.675781 9.550781 16.519531 9.550781 16.363281 9.550781 C 16.101562 9.554688 15.839844 9.550781 15.578125 9.550781 C 15.277344 9.550781 14.972656 9.550781 14.671875 9.550781 C 14.414062 9.550781 14.152344 9.550781 13.894531 9.550781 C 13.738281 9.550781 13.585938 9.550781 13.429688 9.550781 C 13.285156 9.554688 13.136719 9.550781 12.992188 9.550781 C 12.914062 9.550781 12.835938 9.550781 12.753906 9.550781 C 12.683594 9.550781 12.683594 9.550781 12.613281 9.550781 C 12.570312 9.550781 12.53125 9.550781 12.488281 9.550781 C 12.355469 9.527344 12.308594 9.484375 12.226562 9.375 C 12.207031 9.230469 12.207031 9.140625 12.277344 9.007812 C 12.402344 8.890625 12.550781 8.902344 12.71875 8.902344 Z M 12.71875 8.902344 "/>
<path style=" stroke:none;fill-rule:nonzero;fill:rgb(0%,0%,0%);fill-opacity:1;" d="M 5.253906 2.910156 C 5.296875 2.910156 5.339844 2.910156 5.386719 2.910156 C 5.53125 2.933594 5.578125 2.96875 5.664062 3.085938 C 5.683594 3.234375 5.683594 3.320312 5.613281 3.453125 C 5.484375 3.578125 5.332031 3.566406 5.164062 3.5625 C 5.03125 3.550781 4.9375 3.492188 4.84375 3.398438 C 4.820312 3.117188 4.820312 3.117188 4.90625 3 C 5.027344 2.910156 5.105469 2.910156 5.253906 2.910156 Z M 5.253906 2.910156 "/>
<path style=" stroke:none;fill-rule:nonzero;fill:rgb(0%,0%,0%);fill-opacity:1;" d="M 1.996094 2.90625 C 2.039062 2.90625 2.082031 2.910156 2.128906 2.910156 C 2.171875 2.910156 2.214844 2.910156 2.261719 2.910156 C 2.390625 2.929688 2.445312 2.957031 2.539062 3.046875 C 2.585938 3.1875 2.589844 3.253906 2.53125 3.390625 C 2.441406 3.5 2.363281 3.546875 2.21875 3.566406 C 2.035156 3.566406 1.910156 3.558594 1.757812 3.4375 C 1.703125 3.324219 1.707031 3.25 1.71875 3.125 C 1.800781 2.992188 1.839844 2.9375 1.996094 2.90625 Z M 1.996094 2.90625 "/>
<path style=" stroke:none;fill-rule:nonzero;fill:rgb(0%,0%,0%);fill-opacity:1;" d="M 3.691406 2.910156 C 3.734375 2.910156 3.777344 2.910156 3.824219 2.910156 C 3.96875 2.933594 4.015625 2.96875 4.101562 3.085938 C 4.128906 3.199219 4.113281 3.277344 4.101562 3.398438 C 4.03125 3.503906 3.988281 3.515625 3.867188 3.554688 C 3.65625 3.574219 3.492188 3.578125 3.320312 3.4375 C 3.261719 3.316406 3.269531 3.21875 3.28125 3.085938 C 3.398438 2.925781 3.496094 2.910156 3.691406 2.910156 Z M 3.691406 2.910156 "/>
</g>
</svg>
