<?xml version="1.0" encoding="UTF-8"?>
<svg xmlns="http://www.w3.org/2000/svg" xmlns:xlink="http://www.w3.org/1999/xlink" width="20px" height="20px" viewBox="0 0 20 20" version="1.1">
<g id="surface1">
<path style=" stroke:none;fill-rule:nonzero;fill:rgb(0%,0%,0%);fill-opacity:1;" d="M 17.109375 2.5 C 17.300781 2.589844 17.410156 2.699219 17.5 2.890625 C 17.539062 3.183594 17.519531 3.355469 17.34375 3.59375 C 17.269531 3.679688 17.1875 3.757812 17.109375 3.839844 C 17.085938 3.863281 17.0625 3.886719 17.039062 3.910156 C 16.960938 3.988281 16.878906 4.066406 16.800781 4.144531 C 16.742188 4.203125 16.6875 4.261719 16.628906 4.316406 C 16.472656 4.476562 16.316406 4.632812 16.160156 4.789062 C 15.988281 4.957031 15.820312 5.128906 15.652344 5.296875 C 15.339844 5.609375 15.027344 5.921875 14.714844 6.234375 C 14.425781 6.523438 14.136719 6.8125 13.847656 7.101562 C 13.828125 7.121094 13.808594 7.136719 13.789062 7.15625 C 13.710938 7.234375 13.632812 7.3125 13.558594 7.390625 C 12.828125 8.121094 12.097656 8.847656 11.371094 9.578125 C 10.722656 10.226562 10.074219 10.871094 9.425781 11.519531 C 8.699219 12.25 7.972656 12.976562 7.246094 13.703125 C 7.167969 13.78125 7.089844 13.859375 7.011719 13.9375 C 6.992188 13.957031 6.972656 13.972656 6.953125 13.996094 C 6.664062 14.28125 6.375 14.570312 6.089844 14.859375 C 5.761719 15.1875 5.433594 15.515625 5.105469 15.84375 C 4.9375 16.011719 4.769531 16.179688 4.601562 16.347656 C 4.449219 16.5 4.296875 16.652344 4.144531 16.804688 C 4.085938 16.859375 4.03125 16.914062 3.976562 16.972656 C 3.902344 17.046875 3.824219 17.121094 3.75 17.195312 C 3.730469 17.21875 3.707031 17.242188 3.683594 17.261719 C 3.5 17.445312 3.386719 17.511719 3.128906 17.515625 C 2.925781 17.511719 2.808594 17.488281 2.65625 17.34375 C 2.484375 17.164062 2.480469 16.996094 2.480469 16.757812 C 2.535156 16.445312 2.824219 16.230469 3.039062 16.019531 C 3.074219 15.980469 3.113281 15.945312 3.148438 15.90625 C 3.246094 15.808594 3.34375 15.714844 3.441406 15.617188 C 3.601562 15.460938 3.757812 15.304688 3.914062 15.148438 C 3.96875 15.09375 4.023438 15.039062 4.078125 14.984375 C 4.128906 14.9375 4.128906 14.9375 4.179688 14.886719 C 4.210938 14.855469 4.238281 14.828125 4.269531 14.796875 C 4.339844 14.730469 4.339844 14.730469 4.375 14.648438 C 4.335938 14.632812 4.335938 14.632812 4.292969 14.621094 C 4.15625 14.558594 4.03125 14.480469 3.90625 14.394531 C 3.878906 14.378906 3.855469 14.359375 3.828125 14.34375 C 2.746094 13.605469 1.734375 12.675781 0.945312 11.625 C 0.898438 11.5625 0.851562 11.5 0.800781 11.4375 C -0.03125 10.390625 -0.03125 10.390625 -0.0195312 9.894531 C 0.015625 9.660156 0.140625 9.488281 0.273438 9.296875 C 0.289062 9.273438 0.308594 9.246094 0.324219 9.21875 C 0.675781 8.703125 1.050781 8.207031 1.476562 7.75 C 1.546875 7.671875 1.617188 7.59375 1.6875 7.507812 C 2.003906 7.144531 2.359375 6.792969 2.734375 6.484375 C 2.753906 6.46875 2.773438 6.449219 2.796875 6.433594 C 4.644531 4.871094 7.019531 3.761719 9.472656 3.742188 C 9.507812 3.742188 9.546875 3.738281 9.585938 3.738281 C 11.183594 3.726562 12.644531 3.9375 14.132812 4.535156 C 14.160156 4.546875 14.1875 4.558594 14.214844 4.570312 C 14.28125 4.59375 14.347656 4.621094 14.414062 4.648438 C 14.441406 4.621094 14.464844 4.597656 14.492188 4.570312 C 14.734375 4.328125 14.972656 4.085938 15.214844 3.84375 C 15.339844 3.71875 15.464844 3.59375 15.589844 3.46875 C 15.707031 3.347656 15.828125 3.226562 15.949219 3.109375 C 15.992188 3.0625 16.039062 3.015625 16.085938 2.96875 C 16.148438 2.90625 16.210938 2.839844 16.277344 2.777344 C 16.296875 2.757812 16.3125 2.738281 16.332031 2.71875 C 16.574219 2.480469 16.78125 2.464844 17.109375 2.5 Z M 4.375 6.875 C 4.351562 6.890625 4.332031 6.90625 4.308594 6.925781 C 4.160156 7.035156 4.011719 7.148438 3.867188 7.265625 C 3.828125 7.296875 3.789062 7.328125 3.746094 7.359375 C 3.425781 7.625 3.132812 7.914062 2.839844 8.207031 C 2.820312 8.226562 2.800781 8.246094 2.777344 8.265625 C 2.511719 8.53125 2.265625 8.804688 2.03125 9.101562 C 2.007812 9.132812 1.984375 9.164062 1.957031 9.195312 C 1.890625 9.277344 1.828125 9.363281 1.761719 9.449219 C 1.730469 9.492188 1.730469 9.492188 1.695312 9.535156 C 1.636719 9.609375 1.582031 9.6875 1.523438 9.765625 C 1.496094 9.800781 1.472656 9.835938 1.445312 9.871094 C 1.394531 9.960938 1.394531 9.960938 1.429688 10.058594 C 1.625 10.40625 1.894531 10.710938 2.148438 11.015625 C 2.164062 11.035156 2.183594 11.054688 2.199219 11.078125 C 2.621094 11.589844 3.082031 12.085938 3.609375 12.5 C 3.722656 12.585938 3.832031 12.679688 3.941406 12.773438 C 4.15625 12.953125 4.382812 13.117188 4.617188 13.273438 C 4.667969 13.308594 4.71875 13.339844 4.769531 13.375 C 4.851562 13.429688 4.9375 13.488281 5.023438 13.542969 C 5.046875 13.558594 5.074219 13.578125 5.101562 13.597656 C 5.1875 13.652344 5.1875 13.652344 5.3125 13.710938 C 5.441406 13.667969 5.523438 13.585938 5.621094 13.492188 C 5.648438 13.460938 5.675781 13.433594 5.707031 13.402344 C 5.738281 13.371094 5.769531 13.339844 5.800781 13.308594 C 5.832031 13.277344 5.863281 13.246094 5.898438 13.210938 C 6 13.109375 6.101562 13.007812 6.203125 12.90625 C 6.269531 12.835938 6.339844 12.765625 6.40625 12.699219 C 6.578125 12.527344 6.746094 12.359375 6.914062 12.1875 C 6.898438 12.15625 6.882812 12.128906 6.863281 12.097656 C 6.84375 12.058594 6.824219 12.019531 6.800781 11.980469 C 6.78125 11.941406 6.757812 11.90625 6.738281 11.867188 C 6.273438 11.003906 6.117188 9.96875 6.371094 9.015625 C 6.671875 8.003906 7.316406 7.1875 8.242188 6.679688 C 9.09375 6.25 10.136719 6.117188 11.0625 6.394531 C 11.460938 6.527344 11.820312 6.710938 12.1875 6.914062 C 12.585938 6.515625 12.988281 6.113281 13.398438 5.703125 C 12.988281 5.292969 12 5.214844 11.445312 5.117188 C 11.417969 5.113281 11.390625 5.105469 11.363281 5.101562 C 8.933594 4.679688 6.339844 5.433594 4.375 6.875 Z M 8.320312 8.164062 C 7.84375 8.625 7.542969 9.183594 7.527344 9.851562 C 7.523438 10.347656 7.570312 10.789062 7.851562 11.210938 C 8.058594 11.039062 8.25 10.855469 8.4375 10.667969 C 8.46875 10.636719 8.5 10.605469 8.53125 10.574219 C 8.628906 10.476562 8.726562 10.378906 8.828125 10.277344 C 8.894531 10.210938 8.964844 10.140625 9.03125 10.070312 C 9.214844 9.890625 9.394531 9.710938 9.574219 9.53125 C 9.757812 9.34375 9.941406 9.160156 10.128906 8.976562 C 10.488281 8.613281 10.851562 8.253906 11.210938 7.890625 C 10.925781 7.589844 10.4375 7.523438 10.039062 7.5 C 9.386719 7.488281 8.804688 7.734375 8.320312 8.164062 Z M 8.320312 8.164062 "/>
<path style=" stroke:none;fill-rule:nonzero;fill:rgb(0%,0%,0%);fill-opacity:1;" d="M 16.648438 6.019531 C 16.75 6.070312 16.832031 6.136719 16.917969 6.210938 C 16.976562 6.257812 16.976562 6.257812 17.035156 6.308594 C 17.171875 6.429688 17.3125 6.550781 17.449219 6.675781 C 17.527344 6.746094 17.605469 6.816406 17.6875 6.886719 C 18.027344 7.179688 18.34375 7.507812 18.632812 7.851562 C 18.679688 7.90625 18.679688 7.90625 18.726562 7.957031 C 20.027344 9.449219 20.027344 9.449219 20.019531 10.105469 C 19.984375 10.339844 19.859375 10.511719 19.726562 10.703125 C 19.710938 10.726562 19.691406 10.753906 19.675781 10.78125 C 19.324219 11.296875 18.949219 11.792969 18.523438 12.25 C 18.453125 12.328125 18.382812 12.40625 18.3125 12.492188 C 17.996094 12.855469 17.640625 13.207031 17.265625 13.515625 C 17.234375 13.542969 17.234375 13.542969 17.203125 13.566406 C 15.777344 14.773438 14.113281 15.632812 12.292969 16.042969 C 12.261719 16.050781 12.226562 16.058594 12.195312 16.066406 C 11.515625 16.210938 10.828125 16.269531 10.132812 16.265625 C 10.019531 16.265625 9.90625 16.265625 9.789062 16.265625 C 9.09375 16.265625 8.402344 16.195312 7.726562 16.035156 C 7.6875 16.027344 7.652344 16.019531 7.617188 16.011719 C 7.367188 15.957031 7.121094 15.890625 6.875 15.820312 C 6.902344 15.585938 7.132812 15.410156 7.289062 15.246094 C 7.332031 15.203125 7.375 15.15625 7.414062 15.113281 C 7.753906 14.734375 7.753906 14.734375 7.980469 14.714844 C 8.113281 14.734375 8.234375 14.765625 8.359375 14.804688 C 8.425781 14.816406 8.492188 14.828125 8.558594 14.835938 C 8.589844 14.839844 8.621094 14.847656 8.652344 14.851562 C 11.109375 15.222656 13.625 14.554688 15.625 13.085938 C 15.648438 13.070312 15.667969 13.054688 15.691406 13.035156 C 15.839844 12.925781 15.988281 12.8125 16.132812 12.695312 C 16.171875 12.664062 16.214844 12.632812 16.253906 12.597656 C 16.566406 12.34375 16.855469 12.058594 17.140625 11.773438 C 17.160156 11.757812 17.179688 11.738281 17.199219 11.71875 C 17.460938 11.457031 17.703125 11.1875 17.929688 10.898438 C 17.964844 10.851562 17.964844 10.851562 18.003906 10.804688 C 18.070312 10.722656 18.132812 10.636719 18.199219 10.550781 C 18.21875 10.523438 18.242188 10.496094 18.265625 10.464844 C 18.324219 10.390625 18.378906 10.3125 18.4375 10.234375 C 18.464844 10.199219 18.488281 10.164062 18.515625 10.128906 C 18.5625 10.039062 18.5625 10.039062 18.535156 9.949219 C 18.457031 9.808594 18.363281 9.679688 18.265625 9.550781 C 18.242188 9.523438 18.222656 9.496094 18.199219 9.46875 C 18.003906 9.207031 17.792969 8.957031 17.578125 8.710938 C 17.550781 8.679688 17.523438 8.648438 17.492188 8.613281 C 17.101562 8.167969 16.683594 7.746094 16.210938 7.382812 C 16.164062 7.347656 16.117188 7.3125 16.070312 7.273438 C 15.949219 7.179688 15.828125 7.085938 15.703125 6.992188 C 15.730469 6.765625 15.933594 6.625 16.085938 6.472656 C 16.144531 6.414062 16.203125 6.355469 16.257812 6.296875 C 16.3125 6.242188 16.3125 6.242188 16.371094 6.1875 C 16.402344 6.152344 16.4375 6.117188 16.46875 6.085938 C 16.5625 6.015625 16.5625 6.015625 16.648438 6.019531 Z M 16.648438 6.019531 "/>
<path style=" stroke:none;fill-rule:nonzero;fill:rgb(0%,0%,0%);fill-opacity:1;" d="M 13.554688 9.023438 C 13.59375 9.035156 13.632812 9.050781 13.671875 9.0625 C 13.917969 10.054688 13.753906 11.089844 13.246094 11.964844 C 12.683594 12.839844 11.847656 13.460938 10.832031 13.707031 C 10.269531 13.820312 9.621094 13.808594 9.0625 13.671875 C 9.0625 13.476562 9.140625 13.410156 9.269531 13.273438 C 9.289062 13.253906 9.3125 13.230469 9.335938 13.207031 C 9.378906 13.15625 9.425781 13.109375 9.472656 13.0625 C 9.542969 12.988281 9.613281 12.914062 9.679688 12.84375 C 9.980469 12.527344 10.226562 12.394531 10.65625 12.332031 C 11.171875 12.257812 11.628906 11.890625 11.945312 11.5 C 12.140625 11.222656 12.320312 10.917969 12.355469 10.574219 C 12.414062 10.089844 12.664062 9.855469 13.015625 9.535156 C 13.066406 9.484375 13.121094 9.433594 13.171875 9.382812 C 13.296875 9.261719 13.425781 9.140625 13.554688 9.023438 Z M 13.554688 9.023438 "/>
</g>
</svg>
