<?xml version="1.0" encoding="UTF-8"?>
<svg xmlns="http://www.w3.org/2000/svg" xmlns:xlink="http://www.w3.org/1999/xlink" width="20px" height="20px" viewBox="0 0 20 20" version="1.1">
<g id="surface1">
<path style=" stroke:none;fill-rule:nonzero;fill:rgb(0%,0%,0%);fill-opacity:1;" d="M 16.996094 6.453125 C 17.375 6.804688 17.734375 7.167969 18.046875 7.578125 C 18.085938 7.628906 18.125 7.675781 18.164062 7.726562 C 18.472656 8.113281 18.738281 8.515625 18.984375 8.945312 C 19.015625 9 19.015625 9 19.050781 9.058594 C 19.316406 9.542969 19.351562 10.078125 19.207031 10.609375 C 18.914062 11.40625 18.3125 12.160156 17.734375 12.773438 C 17.691406 12.824219 17.648438 12.871094 17.605469 12.921875 C 17.277344 13.296875 16.917969 13.640625 16.523438 13.945312 C 16.472656 13.984375 16.421875 14.023438 16.375 14.066406 C 14.835938 15.277344 12.960938 16.015625 11.015625 16.210938 C 10.972656 16.214844 10.929688 16.21875 10.886719 16.222656 C 8.234375 16.457031 5.539062 15.625 3.476562 13.945312 C 3.453125 13.925781 3.429688 13.90625 3.40625 13.886719 C 2.871094 13.453125 2.371094 12.96875 1.953125 12.421875 C 1.914062 12.371094 1.875 12.324219 1.835938 12.273438 C 1.527344 11.886719 1.261719 11.484375 1.015625 11.054688 C 0.984375 11 0.984375 11 0.949219 10.941406 C 0.675781 10.4375 0.65625 9.925781 0.804688 9.382812 C 0.886719 9.121094 1.023438 8.898438 1.171875 8.671875 C 1.1875 8.648438 1.203125 8.625 1.21875 8.597656 C 1.445312 8.246094 1.6875 7.90625 1.953125 7.578125 C 1.96875 7.558594 1.988281 7.535156 2.003906 7.515625 C 2.453125 6.964844 2.953125 6.445312 3.515625 6.015625 C 3.5625 5.980469 3.609375 5.941406 3.65625 5.90625 C 5.191406 4.714844 7.050781 3.984375 8.984375 3.789062 C 9.027344 3.785156 9.070312 3.78125 9.113281 3.777344 C 11.980469 3.523438 14.875 4.511719 16.996094 6.453125 Z M 4.140625 7.109375 C 4.109375 7.132812 4.082031 7.160156 4.050781 7.183594 C 3.308594 7.832031 2.714844 8.546875 2.1875 9.375 C 2.148438 9.4375 2.148438 9.4375 2.105469 9.5 C 1.992188 9.691406 1.90625 9.859375 1.921875 10.085938 C 2.246094 11.28125 3.601562 12.5625 4.570312 13.242188 C 4.597656 13.261719 4.625 13.28125 4.652344 13.296875 C 6.640625 14.691406 9.058594 15.316406 11.472656 14.921875 C 13.074219 14.636719 14.632812 13.976562 15.859375 12.890625 C 15.902344 12.851562 15.902344 12.851562 15.949219 12.816406 C 16.691406 12.167969 17.285156 11.453125 17.8125 10.625 C 17.851562 10.5625 17.851562 10.5625 17.894531 10.5 C 18.007812 10.308594 18.09375 10.140625 18.078125 9.914062 C 17.753906 8.71875 16.398438 7.4375 15.429688 6.757812 C 15.402344 6.738281 15.375 6.71875 15.347656 6.703125 C 12.246094 4.527344 8.148438 4.378906 4.140625 7.109375 Z M 4.140625 7.109375 "/>
<path style=" stroke:none;fill-rule:nonzero;fill:rgb(0%,0%,0%);fill-opacity:1;" d="M 12.4375 7.292969 C 13.171875 7.960938 13.585938 8.851562 13.640625 9.84375 C 13.667969 10.875 13.3125 11.777344 12.617188 12.539062 C 11.988281 13.1875 11.136719 13.582031 10.234375 13.632812 C 10.203125 13.636719 10.167969 13.636719 10.132812 13.640625 C 9.117188 13.671875 8.210938 13.300781 7.460938 12.617188 C 6.746094 11.921875 6.378906 11 6.359375 10.011719 C 6.371094 8.953125 6.777344 8.082031 7.507812 7.332031 C 8.894531 6.027344 11.023438 6.085938 12.4375 7.292969 Z M 8.296875 8.300781 C 7.828125 8.789062 7.585938 9.367188 7.578125 10.039062 C 7.621094 10.714844 7.886719 11.328125 8.382812 11.792969 C 8.890625 12.226562 9.515625 12.445312 10.183594 12.414062 C 10.847656 12.339844 11.441406 12.035156 11.875 11.523438 C 12.28125 10.988281 12.480469 10.347656 12.398438 9.675781 C 12.277344 9 11.9375 8.449219 11.390625 8.035156 C 10.398438 7.347656 9.167969 7.484375 8.296875 8.300781 Z M 8.296875 8.300781 "/>
</g>
</svg>
